<?xml version="1.0" encoding="UTF-8"?>
<svg width="360px" height="203px" viewBox="0 0 360 203" version="1.1" xmlns="http://www.w3.org/2000/svg" xmlns:xlink="http://www.w3.org/1999/xlink">
    <defs>
        <rect id="path-1" x="0" y="0" width="360" height="203"></rect>
    </defs>
    <g id="Page-1" stroke="none" stroke-width="1" fill="none" fill-rule="evenodd">
        <g id="es" transform="translate(0.000000, -461.000000)">
            <g id="processes_es" transform="translate(0.000000, 461.000000)">
                <mask id="mask-2" fill="white">
                    <use xlink:href="#path-1"></use>
                </mask>
                <use id="Rectangle" fill-opacity="0.100000001" fill="#9B9B9B" xlink:href="#path-1"></use>
                <g id="play_icon" transform="translate(261.000000, 31.000000)">
                    <g id="Group" opacity="0.1" fill="#333447">
                        <path d="M62.6666667,72.8528769 C62.6666667,74.3646299 61.4543011,75.5930995 59.9623656,75.5930995 L8.03763441,75.5930995 C6.54569892,75.5930995 5.33333333,74.3646299 5.33333333,72.8528769 L5.33333333,23.5479369 L19.077957,23.5479369 C21.3709677,23.5479369 23.2365591,21.6575647 23.2365591,19.3340956 L23.2365591,5.40690049 L59.9623656,5.40690049 C61.4543011,5.40690049 62.6666667,6.63537008 62.6666667,8.14439923 L62.6666667,72.8528769 Z M60.8575269,0 L20.9811828,0 C19.7903226,0 18.6666667,0.465783368 17.811828,1.31563372 L0.612903226,18.4570064 C0.22311828,18.849245 0,19.4076403 0,19.9851027 L0,73.7599287 C0,77.7531358 3.2016129,81 7.14247312,81 L60.8575269,81 C64.7956989,81 68,77.7531358 68,73.7599287 L68,7.23734741 C68,3.24958806 64.7956989,0 60.8575269,0 L60.8575269,0 Z" id="Fill-2561"></path>
                        <path d="M56.1813216,30 L11.8213803,30 C11.3647577,30 11,30.2257669 11,30.5006135 L11,33.5018405 C11,33.7766871 11.3647577,34 11.8213803,34 L56.1813216,34 C56.6352423,34 57,33.7766871 57,33.5018405 L57,30.5006135 C57,30.2257669 56.6352423,30 56.1813216,30" id="Fill-2562"></path>
                        <path d="M29.3197565,41 L11.6774895,41 C11.3001884,41 11,41.2256284 11,41.5003066 L11,44.4996934 C11,44.7743716 11.3001884,45 11.6774895,45 L29.3197565,45 C29.6970575,45 30,44.7743716 30,44.4996934 L30,41.5003066 C30,41.2256284 29.6970575,41 29.3197565,41" id="Fill-2563"></path>
                        <path d="M56.3225105,41 L38.6802435,41 C38.3029425,41 38,41.2256284 38,41.5003066 L38,44.4996934 C38,44.7743716 38.3029425,45 38.6802435,45 L56.3225105,45 C56.6998116,45 57,44.7743716 57,44.4996934 L57,41.5003066 C57,41.2256284 56.6998116,41 56.3225105,41" id="Fill-2564"></path>
                        <path d="M29.3197565,53 L11.6774895,53 C11.3001884,53 11,53.2256284 11,53.5003066 L11,56.4996934 C11,56.7743716 11.3001884,57 11.6774895,57 L29.3197565,57 C29.6970575,57 30,56.7743716 30,56.4996934 L30,53.5003066 C30,53.2256284 29.6970575,53 29.3197565,53" id="Fill-2565"></path>
                        <path d="M56.3225105,53 L38.6802435,53 C38.3029425,53 38,53.2256284 38,53.5003066 L38,56.4996934 C38,56.7743716 38.3029425,57 38.6802435,57 L56.3225105,57 C56.6998116,57 57,56.7743716 57,56.4996934 L57,53.5003066 C57,53.2256284 56.6998116,53 56.3225105,53" id="Fill-2566"></path>
                        <path d="M29.3197565,64 L11.6774895,64 C11.3001884,64 11,64.223176 11,64.5003066 L11,67.497241 C11,67.7743716 11.3001884,68 11.6774895,68 L29.3197565,68 C29.6970575,68 30,67.7743716 30,67.497241 L30,64.5003066 C30,64.223176 29.6970575,64 29.3197565,64" id="Fill-2567"></path>
                        <path d="M56.3225105,64 L38.6802435,64 C38.3029425,64 38,64.223176 38,64.5003066 L38,67.497241 C38,67.7743716 38.3029425,68 38.6802435,68 L56.3225105,68 C56.6998116,68 57,67.7743716 57,67.497241 L57,64.5003066 C57,64.223176 56.6998116,64 56.3225105,64" id="Fill-2568"></path>
                        <path d="M34.9581097,21 L56.0418903,21 C56.5732789,21 57,20.606049 57,20.12366 L57,14.87634 C57,14.393951 56.5732789,14 56.0418903,14 L34.9581097,14 C34.4267211,14 34,14.393951 34,14.87634 L34,20.12366 C34,20.606049 34.4267211,21 34.9581097,21" id="Fill-2560"></path>
                    </g>
                    <circle id="Oval-4" stroke="#00A8E1" stroke-width="2" fill-opacity="0.1" fill="#00A8E1" fill-rule="nonzero" cx="58" cy="132" r="20"></circle>
                    <polygon id="Triangle-3" fill="#00A8E1" fill-rule="nonzero" transform="translate(59.538461, 132.769231) rotate(90.000000) translate(-59.538461, -132.769231) " points="59.5384614 125.846154 67.2307691 139.692308 51.8461537 139.692308"></polygon>
                </g>
                <text id="¿Cómo-funcionan-los" font-family="Lato-Bold, Lato" font-size="24" font-weight="bold" line-spacing="30">
                    <tspan x="21" y="68" fill="#333447">{{ site.data.i18n[page.locale].processes.how }}</tspan>
                    <tspan x="21" y="98" font-size="20" fill="#00A8E1">{{ site.data.i18n[page.locale].processes.title }}</tspan>
                    <tspan x="124.42" y="98" fill="#333447"></tspan>
                    <tspan x="21" y="128" fill="#333447">{{ site.data.i18n[page.locale].processes.question }}</tspan>
                </text>
            </g>
        </g>
    </g>
</svg>