<?xml version="1.0" encoding="UTF-8"?>
<svg width="300px" height="53px" viewBox="0 0 300 53" version="1.1" xmlns="http://www.w3.org/2000/svg" xmlns:xlink="http://www.w3.org/1999/xlink">
    <!-- Generator: Sketch 47.1 (45422) - http://www.bohemiancoding.com/sketch -->
    <title>consul_logo</title>
    <desc>Created with Sketch.</desc>
    <defs></defs>
    <g id="Page-1" stroke="none" stroke-width="1" fill="none" fill-rule="evenodd">
        <g id="consul_logo">
            <path d="M113.914141,16.4141414 C112.213796,15.6060566 110.488224,15.2020202 108.737374,15.2020202 C106.548811,15.2020202 104.545464,15.7239005 102.727273,16.7676768 C100.909082,17.811453 99.4781197,19.2508326 98.4343434,21.0858586 C97.3905672,22.9208846 96.8686869,24.932649 96.8686869,27.1212121 C96.8686869,29.3097753 97.3905672,31.3215396 98.4343434,33.1565657 C99.4781197,34.9915917 100.909082,36.4393886 102.727273,37.5 C104.545464,38.5606114 106.548811,39.0909091 108.737374,39.0909091 C110.420884,39.0909091 112.112786,38.7205424 113.813131,37.979798 C115.513477,37.2390535 117.020195,36.2121278 118.333333,34.8989899 L122.323232,39.3434343 C120.471371,41.2289657 118.316511,42.7188497 115.858586,43.8131313 C113.400661,44.9074129 110.909104,45.4545455 108.383838,45.4545455 C104.983148,45.4545455 101.868701,44.6464727 99.040404,43.030303 C96.2121071,41.4141333 93.9899071,39.2171856 92.3737374,36.4393939 C90.7575677,33.6616023 89.9494949,30.5892424 89.9494949,27.2222222 C89.9494949,23.855202 90.7744025,20.7912596 92.4242424,18.030303 C94.0740823,15.2693465 96.3215346,13.097651 99.1666667,11.5151515 C102.011799,9.93265202 105.168333,9.14141414 108.636364,9.14141414 C111.161629,9.14141414 113.636352,9.6464596 116.060606,10.6565657 C118.484861,11.6666717 120.555547,13.0639641 122.272727,14.8484848 L118.333333,19.7979798 C117.087536,18.3501611 115.614487,17.2222263 113.914141,16.4141414 Z M152.80303,11.5151515 C155.681833,13.097651 157.94612,15.2693465 159.59596,18.030303 C161.245799,20.7912596 162.070707,23.855202 162.070707,27.2222222 C162.070707,30.5892424 161.245799,33.6616023 159.59596,36.4393939 C157.94612,39.2171856 155.681833,41.4141333 152.80303,43.030303 C149.924228,44.6464727 146.734024,45.4545455 143.232323,45.4545455 C139.730622,45.4545455 136.540418,44.6464727 133.661616,43.030303 C130.782814,41.4141333 128.518527,39.2171856 126.868687,36.4393939 C125.218847,33.6616023 124.393939,30.5892424 124.393939,27.2222222 C124.393939,23.855202 125.218847,20.7912596 126.868687,18.030303 C128.518527,15.2693465 130.782814,13.097651 133.661616,11.5151515 C136.540418,9.93265202 139.730622,9.14141414 143.232323,9.14141414 C146.734024,9.14141414 149.924228,9.93265202 152.80303,11.5151515 Z M137.323232,16.7929293 C135.471371,17.8535407 134.006739,19.3013376 132.929293,21.1363636 C131.851846,22.9713896 131.313131,24.9999889 131.313131,27.2222222 C131.313131,29.4444556 131.860264,31.4814722 132.954545,33.3333333 C134.048827,35.1851944 135.513459,36.6498263 137.348485,37.7272727 C139.183511,38.8047192 141.17844,39.3434343 143.333333,39.3434343 C145.454556,39.3434343 147.424233,38.8047192 149.242424,37.7272727 C151.060615,36.6498263 152.499995,35.1851944 153.560606,33.3333333 C154.621217,31.4814722 155.151515,29.4444556 155.151515,27.2222222 C155.151515,24.9999889 154.621217,22.9713896 153.560606,21.1363636 C152.499995,19.3013376 151.060615,17.8535407 149.242424,16.7929293 C147.424233,15.7323179 145.454556,15.2020202 143.333333,15.2020202 C141.17844,15.2020202 139.175093,15.7323179 137.323232,16.7929293 Z M192.676768,9.5959596 L199.242424,9.5959596 L199.242424,44.9494949 L192.828283,44.9494949 L174.646465,20.6060606 L174.646465,44.9494949 L168.030303,44.9494949 L168.030303,9.5959596 L174.444444,9.5959596 L192.676768,33.989899 L192.676768,9.5959596 Z M224.570707,16.1111111 C222.668341,15.5050475 220.993273,15.2020202 219.545455,15.2020202 C217.929285,15.2020202 216.649836,15.5050475 215.707071,16.1111111 C214.764305,16.7171747 214.292929,17.5589172 214.292929,18.6363636 C214.292929,19.6127995 214.621209,20.4292896 215.277778,21.0858586 C215.934347,21.7424275 216.759254,22.2811427 217.752525,22.7020202 C218.745796,23.1228977 220.101002,23.5858561 221.818182,24.0909091 C224.208766,24.7979833 226.170026,25.505047 227.70202,26.2121212 C229.234014,26.9191955 230.538715,27.9629561 231.616162,29.3434343 C232.693608,30.7239126 233.232323,32.5420763 233.232323,34.7979798 C233.232323,36.9528727 232.651521,38.8299583 231.489899,40.4292929 C230.328277,42.0286275 228.728966,43.249154 226.691919,44.0909091 C224.654872,44.9326641 222.323245,45.3535354 219.69697,45.3535354 C216.936013,45.3535354 214.242437,44.8400725 211.616162,43.8131313 C208.989886,42.7861902 206.700346,41.41415 204.747475,39.6969697 L207.575758,33.9393939 C209.360278,35.5892338 211.363625,36.8855172 213.585859,37.8282828 C215.808092,38.7710485 217.878778,39.2424242 219.79798,39.2424242 C221.683511,39.2424242 223.164978,38.880475 224.242424,38.1565657 C225.319871,37.4326563 225.858586,36.4478177 225.858586,35.2020202 C225.858586,34.1919141 225.530306,33.3585891 224.873737,32.7020202 C224.217168,32.0454513 223.383843,31.5151535 222.373737,31.1111111 C221.363631,30.7070687 219.983174,30.2525278 218.232323,29.7474747 C215.841739,29.0404005 213.888896,28.3501717 212.373737,27.6767677 C210.858578,27.0033636 209.562295,25.9848553 208.484848,24.6212121 C207.407402,23.2575689 206.868687,21.4646576 206.868687,19.2424242 C206.868687,17.1885419 207.415819,15.3956306 208.510101,13.8636364 C209.604383,12.3316422 211.153189,11.1447854 213.156566,10.3030303 C215.159943,9.46127525 217.474734,9.04040404 220.10101,9.04040404 C222.390584,9.04040404 224.654871,9.37710101 226.893939,10.0505051 C229.133008,10.7239091 231.127937,11.6329909 232.878788,12.7777778 L230.151515,18.6868687 C228.333324,17.575752 226.473073,16.7171747 224.570707,16.1111111 Z M248.131313,36.969697 C249.713813,38.5521965 251.835004,39.3434343 254.494949,39.3434343 C257.154895,39.3434343 259.250834,38.5521965 260.782828,36.969697 C262.314822,35.3871975 263.080808,33.1986672 263.080808,30.4040404 L263.080808,9.5959596 L269.848485,9.5959596 L269.848485,30.4040404 C269.848485,33.4680288 269.225595,36.1363523 267.979798,38.4090909 C266.734001,40.6818295 264.957924,42.4242364 262.651515,43.6363636 C260.345106,44.8484909 257.626278,45.4545455 254.494949,45.4545455 C251.329951,45.4545455 248.577453,44.8484909 246.237374,43.6363636 C243.897295,42.4242364 242.104383,40.6818295 240.858586,38.4090909 C239.612788,36.1363523 238.989899,33.4680288 238.989899,30.4040404 L238.989899,9.5959596 L245.757576,9.5959596 L245.757576,30.4040404 C245.757576,33.1986672 246.548814,35.3871975 248.131313,36.969697 Z M277.828283,9.5959596 L284.59596,9.5959596 L284.59596,38.8383838 L299.848485,38.8383838 L299.848485,44.9494949 L277.828283,44.9494949 L277.828283,9.5959596 Z" id="CONSUL" fill="#FFFFFF"></path>
            <path d="M61.2323232,0 C47.4550505,5.02979798 39.3636364,20.1191919 39.3636364,33.240404 C39.3636364,43.9560606 44.6121212,52.7035354 55.7651515,52.7035354 C64.0752525,52.7035354 70.1984848,45.9242424 70.1984848,38.4888889 C70.1984848,29.7414141 63.4191919,25.3676768 55.3277778,24.2742424 C57.0772727,20.3378788 61.669697,13.7772727 67.7929293,10.2782828 L61.2323232,0 Z M21.8686869,0 C8.09141414,5.02979798 0,20.1191919 0,33.240404 C0,43.9560606 5.24848485,52.7035354 16.4015152,52.7035354 C24.7116162,52.7035354 30.8348485,45.9242424 30.8348485,38.4888889 C30.8348485,29.7414141 24.0555556,25.3676768 15.9641414,24.2742424 C17.7136364,20.3378788 22.3060606,13.7772727 28.4292929,10.2782828 L21.8686869,0 Z" id="“" fill="#00A8E0" transform="translate(35.099242, 26.351768) scale(-1, -1) translate(-35.099242, -26.351768) "></path>
        </g>
    </g>
</svg>