<?xml version="1.0" encoding="UTF-8"?>
<svg width="30px" height="30px" viewBox="0 0 30 30" version="1.1" xmlns="http://www.w3.org/2000/svg" xmlns:xlink="http://www.w3.org/1999/xlink">
    <!-- Generator: Sketch 47.1 (45422) - http://www.bohemiancoding.com/sketch -->
    <title>if_43-twitter_104461</title>
    <desc>Created with Sketch.</desc>
    <defs></defs>
    <g id="Page-1" stroke="none" stroke-width="1" fill="none" fill-rule="evenodd">
        <g id="00---LANDING" transform="translate(-1177.000000, -4881.000000)" fill-rule="nonzero" fill="#1DA1F2">
            <g id="FOOTER" transform="translate(-2.000000, 4846.000000)">
                <g id="if_43-twitter_104461" transform="translate(1179.000000, 35.000000)">
                    <path d="M15.2088,0.0942 C7.0488,0.0942 0.4338,6.7104 0.4338,14.8692 C0.4338,23.0292 7.0488,29.643 15.2088,29.643 C23.3688,29.643 29.9826,23.0292 29.9826,14.8692 C29.9826,6.7104 23.3682,0.0942 15.2088,0.0942 Z M22.6512,11.8902 C22.659,12.0498 22.662,12.21 22.662,12.372 C22.662,17.2926 18.9168,22.9656 12.0684,22.9656 C9.966,22.9656 8.0082,22.3494 6.3606,21.2934 C6.6522,21.3276 6.948,21.345 7.2486,21.345 C8.9934,21.345 10.599,20.7498 11.8728,19.7514 C10.2438,19.7208 8.8692,18.6438 8.3952,17.1648 C8.622,17.2092 8.8554,17.2314 9.0954,17.2314 C9.435,17.2314 9.7638,17.187 10.0764,17.1012 C8.3724,16.7592 7.089,15.2532 7.089,13.4508 C7.089,13.4346 7.089,13.419 7.0896,13.4028 C7.5912,13.6818 8.1654,13.8492 8.7762,13.869 C7.7766,13.2 7.1196,12.0618 7.1196,10.7694 C7.1196,10.0872 7.3032,9.447 7.6236,8.8974 C9.4602,11.1498 12.204,12.6324 15.2988,12.7872 C15.2352,12.5154 15.2022,12.2304 15.2022,11.9388 C15.2022,9.8832 16.869,8.2158 18.9258,8.2158 C19.9968,8.2158 20.964,8.6682 21.6432,9.3912 C22.4916,9.225 23.2884,8.9142 24.0078,8.4876 C23.7288,9.3576 23.139,10.0872 22.3698,10.5474 C23.124,10.4574 23.8416,10.257 24.5088,9.9612 C24.0108,10.7094 23.379,11.3652 22.6512,11.8902 Z" id="Shape"></path>
                </g>
            </g>
        </g>
    </g>
</svg>