<?xml version="1.0" encoding="UTF-8"?>
<svg width="30px" height="30px" viewBox="0 0 30 30" version="1.1" xmlns="http://www.w3.org/2000/svg" xmlns:xlink="http://www.w3.org/1999/xlink">
    <!-- Generator: Sketch 47.1 (45422) - http://www.bohemiancoding.com/sketch -->
    <title>if_icon-social-github_211904</title>
    <desc>Created with Sketch.</desc>
    <defs></defs>
    <g id="Page-1" stroke="none" stroke-width="1" fill="none" fill-rule="evenodd">
        <g id="00---LANDING" transform="translate(-1117.000000, -4881.000000)" fill-rule="nonzero" fill="#333333">
            <g id="FOOTER" transform="translate(-2.000000, 4846.000000)">
                <g id="if_icon-social-github_211904" transform="translate(1119.000000, 35.000000)">
                    <path d="M15,0 C6.71651786,0 0,6.88392857 0,15.3816964 C0,22.1785714 4.29910714,27.9375 10.2589286,29.9732143 C11.0089286,30.1138393 11.2834821,29.6383929 11.2834821,29.2299107 C11.2834821,28.8616071 11.2700893,27.8973214 11.2633929,26.6116071 C7.09151786,27.5424107 6.20758929,24.5491071 6.20758929,24.5491071 C5.52455357,22.7745536 4.54017857,22.2991071 4.54017857,22.2991071 C3.18080357,21.3415179 4.640625,21.3616071 4.640625,21.3616071 C6.14732143,21.46875 6.9375,22.9486607 6.9375,22.9486607 C8.27678571,25.2991071 10.4464286,24.6227679 11.3035714,24.2276786 C11.4375,23.2366071 11.8258929,22.5535714 12.2544643,22.171875 C8.92633929,21.7834821 5.42410714,20.4642857 5.42410714,14.5714286 C5.42410714,12.890625 6.00669643,11.5178571 6.96428571,10.4464286 C6.81026786,10.0580357 6.29464286,8.49107143 7.11160714,6.375 C7.11160714,6.375 8.37053571,5.95982143 11.2366071,7.94866071 C12.4352679,7.60714286 13.7142857,7.43973214 14.9933036,7.43303571 C16.265625,7.43973214 17.5513393,7.60714286 18.75,7.94866071 C21.6160714,5.95982143 22.8683036,6.375 22.8683036,6.375 C23.6852679,8.49107143 23.1696429,10.0580357 23.015625,10.4464286 C23.9732143,11.5245536 24.5558036,12.8973214 24.5558036,14.5714286 C24.5558036,20.4776786 21.046875,21.7767857 17.7053571,22.1584821 C18.2410714,22.6339286 18.7232143,23.5714286 18.7232143,25.0044643 C18.7232143,27.0602679 18.703125,28.7209821 18.703125,29.2232143 C18.703125,29.6316964 18.9709821,30.1138393 19.734375,29.9598214 C25.7075893,27.9308036 30,22.171875 30,15.3816964 C30,6.88392857 23.2834821,0 15,0 Z" id="Shape"></path>
                </g>
            </g>
        </g>
    </g>
</svg>