<?xml version="1.0" encoding="UTF-8" standalone="no"?>
<svg
   xmlns:dc="http://purl.org/dc/elements/1.1/"
   xmlns:cc="http://creativecommons.org/ns#"
   xmlns:rdf="http://www.w3.org/1999/02/22-rdf-syntax-ns#"
   xmlns:svg="http://www.w3.org/2000/svg"
   xmlns="http://www.w3.org/2000/svg"
   id="svg12"
   version="1.1"
   viewBox="0 0 30 30"
   height="30px"
   width="30px">
  <metadata
     id="metadata16">
    <rdf:RDF>
      <cc:Work
         rdf:about="">
        <dc:format>image/svg+xml</dc:format>
        <dc:type
           rdf:resource="http://purl.org/dc/dcmitype/StillImage" />
        <dc:title>checkmark_icon</dc:title>
      </cc:Work>
    </rdf:RDF>
  </metadata>
  <!-- Generator: Sketch 47.1 (45422) - http://www.bohemiancoding.com/sketch -->
  <title
     id="title2">checkmark_icon</title>
  <desc
     id="desc4">Created with Sketch.</desc>
  <defs
     id="defs6" />
  <g
     fill-rule="evenodd"
     fill="none"
     stroke-width="1"
     stroke="none"
     id="Page-1">
    <g
       fill-rule="nonzero"
       id="checkmark_icon">
      <circle
         r="15"
         cy="15"
         cx="15"
         fill="#00A8E1"
         id="Oval-3" />
    </g>
  </g>
  <path
     style="fill:#ffffff;fill-opacity:1;stroke-width:0.05497144"
     id="path2"
     d="m 18.667695,15.000003 5.500992,-5.500996 c 0.675049,-0.6750462 0.675049,-1.7695313 0,-2.4451261 L 22.946122,5.8313154 c -0.675049,-0.6750511 -1.769531,-0.6750511 -2.445131,0 L 14.999997,11.332305 9.499007,5.8313154 c -0.6750511,-0.6750511 -1.7695308,-0.6750511 -2.445131,0 L 5.8313104,7.0538809 c -0.6750456,0.6750453 -0.6750456,1.7695303 0,2.4451261 l 5.5009956,5.500996 -5.5009956,5.50099 c -0.6750456,0.675051 -0.6750456,1.76953 0,2.445131 L 7.053876,24.16869 c 0.675051,0.675044 1.7700799,0.675044 2.445131,0 l 5.50099,-5.500997 5.500994,5.500997 c 0.675051,0.675044 1.770082,0.675044 2.445131,0 l 1.222565,-1.222566 c 0.675049,-0.675051 0.675049,-1.769531 0,-2.445131 z" />
</svg>
