<?xml version="1.0" encoding="UTF-8"?>
<svg width="20px" height="20px" viewBox="0 0 20 20" version="1.1" xmlns="http://www.w3.org/2000/svg" xmlns:xlink="http://www.w3.org/1999/xlink">
    <!-- Generator: Sketch 47.1 (45422) - http://www.bohemiancoding.com/sketch -->
    <title>Untitled</title>
    <desc>Created with Sketch.</desc>
    <defs></defs>
    <g id="Page-1" stroke="none" stroke-width="1" fill="none" fill-rule="evenodd">
        <g id="Group-2">
            <g id="Group" transform="translate(15.242641, 4.242641) rotate(45.000000) translate(-15.242641, -4.242641) translate(12.242641, 1.242641)">
                <polygon id="Triangle" fill="#000000" points="3 0 6 4 0 4"></polygon>
                <path d="M3.03071133,5 L3.03071133,6" id="Line-3" stroke="#000000" stroke-width="2" stroke-linecap="square"></path>
            </g>
            <g id="Group-Copy" transform="translate(4.242641, 4.242641) scale(-1, 1) rotate(45.000000) translate(-4.242641, -4.242641) translate(1.242641, 1.242641)">
                <polygon id="Triangle" fill="#000000" points="3 0 6 4 0 4"></polygon>
                <path d="M3.03071133,5 L3.03071133,6" id="Line-3" stroke="#000000" stroke-width="2" stroke-linecap="square"></path>
            </g>
            <g id="Group-Copy-2" transform="translate(4.242641, 15.242641) scale(-1, -1) rotate(45.000000) translate(-4.242641, -15.242641) translate(1.242641, 12.242641)">
                <polygon id="Triangle" fill="#000000" points="3 0 6 4 0 4"></polygon>
                <path d="M3.03071133,5 L3.03071133,6" id="Line-3" stroke="#000000" stroke-width="2" stroke-linecap="square"></path>
            </g>
            <g id="Group-Copy-3" transform="translate(15.242641, 15.242641) scale(1, -1) rotate(45.000000) translate(-15.242641, -15.242641) translate(12.242641, 12.242641)">
                <polygon id="Triangle" fill="#000000" points="3 0 6 4 0 4"></polygon>
                <path d="M3.03071133,5 L3.03071133,6" id="Line-3" stroke="#000000" stroke-width="2" stroke-linecap="square"></path>
            </g>
        </g>
    </g>
</svg>