<?xml version="1.0" encoding="UTF-8"?>
<svg width="360px" height="203px" viewBox="0 0 360 203" version="1.1" xmlns="http://www.w3.org/2000/svg" xmlns:xlink="http://www.w3.org/1999/xlink">
    <!-- Generator: Sketch 47.1 (45422) - http://www.bohemiancoding.com/sketch -->
    <title>budgets_es</title>
    <desc>Created with Sketch.</desc>
    <defs></defs>
    <g id="Page-1" stroke="none" stroke-width="1" fill="none" fill-rule="evenodd">
        <g id="es" transform="translate(0.000000, -233.000000)">
            <g id="budgets_es" transform="translate(0.000000, 233.000000)">
                <rect id="Rectangle" fill-opacity="0.100000001" fill="#9B9B9B" x="0" y="0" width="360" height="203"></rect>
                <g id="Group" opacity="0.1" transform="translate(236.000000, 35.000000)" fill="#333447">
                    <path d="M58,43.4743787 L55.889459,47.1037805 C53.9328358,45.4041124 51.7919776,44.5519307 49.4692164,44.5519307 C47.4193097,44.5519307 45.707556,45.2562131 44.329291,46.6647778 C43.1679104,47.9160528 42.3889925,49.4725168 41.9902052,51.3318222 L54.1007463,51.3318222 L52.9090485,53.8860196 L41.6683769,53.8860196 C41.6403918,54.0174856 41.6240672,54.2052943 41.6240672,54.4424027 C41.6240672,54.6818587 41.6240672,54.9893953 41.6240672,55.3626649 C41.6240672,56.0528617 41.6403918,56.4660406 41.6683769,56.5975067 L52.2653918,56.5975067 L51.1203358,59.1094471 L41.8992537,59.1094471 C42.2653918,61.2645511 43.0466418,62.9524812 44.2383396,64.1755849 C45.6142724,65.6921396 47.479944,66.4504169 49.8353545,66.4504169 C51.3628731,66.4504169 52.6338619,66.2367846 53.6413246,65.8118676 C54.5601679,65.4127742 55.5979478,64.7484012 56.7616604,63.8187485 L56.7616604,68.2439893 C54.6814366,69.4154456 52.3726679,70 49.8353545,70 C45.7378731,70 42.5405784,68.9107099 40.2481343,66.7274346 C38.2588619,64.8423055 37.0228545,62.3021938 36.5331157,59.1094471 L33,59.1094471 L34.2383396,56.5975067 L36.3045709,56.5975067 C36.2719216,56.4120457 36.2509328,56.212499 36.2346082,55.9988667 C36.2182836,55.787582 36.2112873,55.559864 36.2112873,55.320408 C36.2112873,55.134947 36.2182836,54.9236623 36.2346082,54.6818587 C36.2509328,54.4424027 36.2719216,54.1794706 36.3045709,53.8860196 L33,53.8860196 L34.1940299,51.3318222 L36.6240672,51.3318222 C37.3889925,48.2752368 38.78125,45.8548531 40.7985075,44.0730187 C43.1539179,42.0259046 46.1646455,41 49.8353545,41 C52.4939366,41 55.2154851,41.826358 58,43.4743787" id="Fill-815"></path>
                    <path d="M88.7795379,34.8625385 C88.5259769,35.5348908 88.0946861,36.1858609 87.4951446,36.7964424 L87.4027252,36.8819713 C86.8956031,37.3713868 86.3813719,37.7847766 85.8292249,38.1554019 C85.2936661,38.5141482 84.6633181,38.8681429 83.9002653,39.2435198 C80.1371352,41.0752642 75.0682843,42.0826049 69.6250161,42.0826049 C68.5088736,42.0826049 67.3737733,42.0350888 66.1581022,41.935305 L66.0135487,41.923426 L65.923499,41.8046359 C64.5846019,40.063172 63.0016227,38.5307788 61.2219561,37.2430934 L61.1129485,37.1646919 L60.653221,36.8392068 C60.1934935,36.5303524 59.6982201,36.2238738 59.138964,35.9078919 C58.5891868,35.5966617 58.0251913,35.3068137 57.458826,35.0478511 C57.2028952,34.9290609 57.0109471,34.8411562 56.8142596,34.7580031 C55.1009453,34.0357589 53.3023208,33.5297128 51.4705201,33.2564954 C51.1932617,33.2161067 50.9136337,33.1804697 50.6316359,33.1495842 L50.2430003,33.1091956 L50.3496381,32.729067 C51.3781006,29.0180622 58.8711846,25.1763882 69.6250161,25.1763882 C80.558947,25.1763882 88.0307034,29.0774573 88.9406795,32.850233 C89.0046622,33.1234504 89.0378384,33.3776614 89.0378384,33.6294965 C89.0378384,34.0072492 88.9525281,34.4111358 88.7795379,34.8625385 Z M88.9620071,44.3847583 C88.9620071,44.7126192 88.9003941,45.0594865 88.7653195,45.4728762 L88.6089174,45.9123999 C88.3837931,46.4136944 88.0449218,46.9173647 87.6017824,47.4115318 L87.4430106,47.5944686 C87.0520053,48.0054826 86.5519924,48.4283756 85.9666692,48.8488928 C85.4287407,49.2313972 84.8031322,49.6091499 84.1111712,49.9678962 C80.6324086,51.7758826 75.8811014,52.8449941 70.7340494,52.978039 L70.4330938,52.9851665 L70.3596322,52.398343 C70.1202895,50.659255 69.6747804,48.9486766 69.0325838,47.311748 L68.8714422,46.8983583 C68.6771244,46.4350766 68.4662185,45.9741708 68.2410942,45.5203923 L67.9946424,45.0262252 L68.5467893,45.04048 C69.2719264,45.0571107 70.011282,45.0547349 70.7364191,45.04048 C71.8217551,45.0119704 72.9236793,44.9478237 74.0137547,44.8385367 C75.902429,44.6532241 77.7223811,44.3491213 79.4167375,43.9333557 C80.2342941,43.7337882 81.049481,43.5009595 81.84571,43.2372453 C83.7794091,42.60053 85.4950931,41.8212665 86.9477372,40.9184612 C87.4785565,40.5882245 87.9738299,40.2389815 88.4240785,39.8826109 L88.9620071,39.4549663 L88.9620071,44.3847583 Z M88.9620071,55.0117267 C88.9620071,55.3395876 88.9003941,55.6864549 88.7653195,56.0998447 L88.6112871,56.5369925 C88.3861628,57.0359112 88.0472916,57.5419573 87.6017824,58.0385002 C84.5566803,61.435899 77.4996265,63.6311413 69.6250161,63.6311413 L69.1487005,63.6311413 L69.3287999,62.8946423 C69.9093836,61.2268283 70.29091,59.5067467 70.4639003,57.7819134 C70.5136646,57.2853705 70.5421013,56.784076 70.5586894,56.2780299 L70.5681684,55.9644239 L70.8809726,55.9549207 C72.181954,55.9216594 73.5018932,55.8242515 74.8052443,55.6674484 C77.6157432,55.3324602 80.2271849,54.7242545 82.5661077,53.8665895 C84.2604642,53.2465048 85.7770909,52.5052542 87.0685934,51.6642198 C87.5401695,51.360117 87.9951575,51.0275045 88.4217088,50.6806372 L88.9620071,50.2434894 L88.9620071,55.0117267 Z M88.9620071,65.6386951 C88.9620071,70.7181627 78.7721711,74.2581097 69.6250161,74.2581097 C67.1273214,74.2581097 64.6841305,74.0347842 62.3570564,73.5952606 L61.6508771,73.4622156 L62.2101332,73.010813 C64.3760657,71.2527185 66.1817994,69.1406293 67.5728305,66.7291889 L67.6723592,66.5557552 L67.8737862,66.5628826 C68.4520001,66.5866407 69.0349535,66.6032713 69.6250161,66.6032713 C77.3195271,66.6032713 84.3457744,64.6218513 88.4193391,61.3076056 L88.9620071,60.868082 L88.9620071,65.6386951 Z M57.9943848,72.3170784 C57.2171136,72.7756084 56.5038251,73.1462337 55.8118641,73.445585 C55.0796178,73.7615668 54.2857584,74.0347842 53.3900008,74.2889952 C51.6435103,74.7784106 49.878062,75.02787 48.1410504,75.02787 C45.3897947,75.02787 42.7048914,74.4457982 40.1645416,73.2959094 C39.5507818,73.0179404 38.9251732,72.6924553 38.3066739,72.3289574 C37.718981,71.9820901 37.1289184,71.5900825 36.5601834,71.1648137 C34.6454421,69.7393317 33.026917,68.0049953 31.7520027,66.0116963 L31.6050795,65.7669885 C31.2993844,65.2751972 31.0339747,64.807164 30.794632,64.3391307 L30.7069521,64.153818 C30.4249543,63.5788736 30.2116786,63.0965855 30.0221003,62.6166733 L29.9296809,62.3648381 C29.3751642,60.89184 29.0031167,59.3737017 28.8206476,57.8555633 C28.7519254,57.2687399 28.7069005,56.6462794 28.6903124,56.0071883 L28.6737243,55.6983339 L28.6666152,55.5225244 C28.6666152,55.0996314 28.6950519,54.7028723 28.7234887,54.3037373 L28.7519254,53.811946 L28.7590346,53.631385 C28.8064292,53.1490969 28.8798908,52.6454266 28.9960075,52.0015839 L29.0125956,51.8827937 L29.0410324,51.7093601 C29.3230302,50.2862538 29.7803879,48.8678992 30.3988873,47.4899333 L30.5718775,47.1335628 L30.6169024,47.0432823 C30.8183293,46.6203893 31.0339747,46.1974963 31.2709476,45.7912339 L31.6311465,45.1949073 C31.827834,44.8813012 32.0268913,44.5676952 32.2401669,44.2659681 L32.6051052,43.7741768 L32.9273884,43.3465322 C33.4368802,42.7074411 33.9131958,42.1681338 34.3871416,41.6905973 L34.6572908,41.4435138 L34.8397599,41.2795833 C35.6715349,40.497944 36.5293769,39.8113368 37.3943281,39.2363924 C37.9298869,38.8776461 38.5199495,38.5307788 39.2000618,38.1744083 C39.7924941,37.8679297 40.4157329,37.5852091 41.1076939,37.3143675 L41.6314041,37.1219274 C42.121938,36.946118 42.6101023,36.7964424 43.1053757,36.6633974 L43.3186513,36.6040023 C43.6290859,36.5184734 43.9418901,36.4329445 44.2594338,36.3687978 L44.7025732,36.2998995 L44.9513948,36.2642624 C45.6030703,36.1525997 46.2855524,36.076574 46.9751436,36.0361853 L47.4988538,36.0100515 L47.7571543,35.9957967 C48.0154548,35.9767902 48.2808644,35.9744144 48.5439044,35.9957967 L48.8164233,36.0100515 C49.072354,36.0195547 49.3235453,36.0314337 49.5747366,36.0504401 C50.0747495,36.088453 50.586611,36.1478481 51.1458671,36.233377 L51.4207557,36.2737656 C51.6624681,36.3094027 51.9018108,36.3450397 52.1387837,36.3949316 L52.2288334,36.4186897 C53.0132138,36.5921233 53.7715272,36.8106972 54.5914535,37.1005452 C55.3971615,37.3856416 56.1768024,37.7206299 56.9019396,38.0888794 C58.1981815,38.7469769 59.392525,39.519113 60.451794,40.3886571 C61.3001571,41.0847674 62.1177137,41.887789 62.8807666,42.7787152 L63.3570821,43.3465322 C63.7741545,43.8787122 64.1343533,44.3776309 64.4566365,44.8765496 L64.6509543,45.1949073 C64.977977,45.717584 65.2884115,46.2711462 65.5704093,46.8437148 L65.6675682,47.0432823 C66.4614275,48.689714 67.0159442,50.4335537 67.3216392,52.2320368 L67.3666641,52.531388 C67.4543441,53.0920776 67.5112176,53.6052511 67.5467635,54.101794 L67.5823095,54.7099997 C67.6012673,54.9713381 67.6154857,55.2350522 67.6154857,55.503518 L67.603637,55.781487 L67.5941581,55.9620481 L67.5823095,56.1853736 C67.5562424,56.8601017 67.5183268,57.3827785 67.4614533,57.8555633 C67.2458079,59.6326643 66.8002988,61.3503701 66.1344049,62.9587889 L66.0135487,63.2415095 C65.7765757,63.7879443 65.5419725,64.274984 65.2955207,64.7335141 L65.1367488,65.011483 C64.8334235,65.555542 64.5395771,66.0354543 64.2433609,66.4726021 L64.1296139,66.6246535 L64.0443036,66.7363163 C62.4376272,69.0147117 60.4020297,70.8915964 57.9943848,72.3170784 Z M33.0055895,72.7732326 C29.8372614,73.7449362 26.1594416,74.2581097 22.3726142,74.2581097 C13.2278289,74.2581097 3.03562321,70.7181627 3.03562321,65.6386951 L3.03562321,60.868082 L3.57829122,61.3076056 C7.65185586,64.6218513 14.6781032,66.6032713 22.3726142,66.6032713 C24.3371197,66.6032713 26.2897767,66.4726021 28.1760812,66.2160154 L28.4012055,66.1851299 L28.510213,66.3846974 C29.7235144,68.5728123 31.2780568,70.5328501 33.1311851,72.2077914 L33.5648456,72.599799 L33.0055895,72.7732326 Z M41.6953868,22.3016661 C41.66695,22.9621394 41.4441955,23.6273644 41.0318626,24.2949651 C40.6645545,24.8841644 40.1669114,25.4543572 39.5507818,25.9912887 L39.3019602,26.1956078 C38.9085851,26.5163413 38.4488576,26.8370747 37.8967107,27.1768146 C37.2687325,27.5616947 36.5744018,27.9251927 35.8397857,28.2554293 C32.1809237,29.8947336 27.39881,30.7999147 22.3726142,30.7999147 C17.3464184,30.7999147 12.5643047,29.8947336 8.90544265,28.2554293 C8.1731963,27.9275685 7.47886562,27.5640705 6.84851763,27.1768146 C6.29637071,26.8370747 5.83664323,26.5163413 5.44326817,26.1956078 L5.19681632,25.9912887 C4.57831698,25.4543572 4.0783041,24.8841644 3.71336579,24.2949651 C3.30103289,23.6273644 3.07827834,22.9621394 3.04984159,22.3159209 L3.03562321,22.1781243 L3.03562321,17.2483324 L3.57592149,17.675977 L4.10674085,18.0774877 C4.60675373,18.436234 5.13520336,18.7759739 5.67787136,19.0872042 C7.86987095,20.3345009 10.6377148,21.3347141 13.6804472,21.976181 C14.0596038,22.0569584 14.4482394,22.1306083 14.8392448,22.1995066 C19.6640136,23.0571716 25.0835845,23.0571716 29.9083533,22.1995066 C30.2969889,22.1306083 30.6832548,22.0569584 31.0647812,21.976181 C34.1098833,21.3347141 36.8777271,20.3345009 39.0697267,19.0872042 C39.6123947,18.7759739 40.1384746,18.436234 40.6384875,18.0774877 L41.1740463,17.675977 L41.7096051,17.2554598 L41.6953868,22.3016661 Z M22.3726142,42.3795803 C16.7990109,42.3795803 11.6543286,41.3009656 7.88645906,39.3433036 C7.19212838,38.9821815 6.56888958,38.6044287 6.03333076,38.2219244 C5.44089844,37.7990314 4.94325529,37.3785142 4.55224995,36.9651244 L4.44798187,36.8439585 C3.95270845,36.2927721 3.61383716,35.786726 3.38634315,35.2830556 L3.24415939,34.8910481 C3.09723617,34.432518 3.03562321,34.0880266 3.03562321,33.7601657 L3.03562321,28.8279979 L3.57592149,29.2556425 C4.02853978,29.6167646 4.52618293,29.9660077 5.0498931,30.2914928 C6.50016743,31.1942981 8.21822116,31.9735616 10.1495505,32.6102769 C10.9623677,32.8787427 11.7799243,33.1115714 12.5808928,33.3087631 C14.2847281,33.7221528 16.1023105,34.0262557 17.9838755,34.2139441 C19.047884,34.3161037 20.1379595,34.385002 21.2256652,34.4135116 C21.9863483,34.4301422 22.75888,34.4301422 23.5195631,34.4135116 C24.6072689,34.385002 25.6973444,34.3161037 26.7637225,34.2139441 C28.6452876,34.0262557 30.4628699,33.7221528 32.1667053,33.3063873 C32.9700435,33.1115714 33.7876001,32.8763668 34.5956778,32.6102769 C36.5270072,31.9759374 38.2426912,31.1966739 39.6953352,30.2914928 C40.2237849,29.9612561 40.7190583,29.6143888 41.1716766,29.2556425 L41.7096051,28.8279979 L41.7096051,33.9478542 L41.4773717,34.0191283 C40.607681,34.2923456 39.7142931,34.6368371 38.8232749,35.0478511 C38.3943539,35.2450428 37.972542,35.4517377 37.5578394,35.6726874 C36.9203822,36.0171789 36.2900343,36.3973074 35.6833836,36.8035698 C35.0648842,37.2217112 34.5008886,37.6422284 33.9558509,38.0888794 C32.8539268,38.9916847 31.8302037,40.0085285 30.9154882,41.1085255 L30.5908353,41.5100362 L30.4605002,41.5528007 C27.9059321,42.1016113 25.1854828,42.3795803 22.3726142,42.3795803 Z M27.1144425,63.3579239 L26.6973701,63.4030642 C25.2565747,63.5551156 23.8015609,63.6311413 22.3726142,63.6311413 C14.4980038,63.6311413 7.44094995,61.435899 4.39584782,58.0385002 C3.95033872,57.5419573 3.61146743,57.0359112 3.38634315,56.5346167 L3.24415939,56.1426091 C3.0996059,55.6935823 3.03562321,55.3372118 3.03562321,55.0117267 L3.03562321,50.2411136 L3.57829122,50.683013 C4.00958195,51.0346319 4.46456997,51.3624928 4.92903691,51.6642198 C6.21816964,52.5052542 7.73242665,53.2465048 9.43152255,53.8665895 C11.7728151,54.7242545 14.3842568,55.3324602 17.1947557,55.6674484 C19.8393736,55.9881819 22.5550833,56.0618318 25.3655823,55.8717675 L25.709193,55.8480095 L25.7210417,56.1948768 C25.7399995,56.7912034 25.770806,57.3115044 25.8182006,57.7819134 C25.9864513,59.4378484 26.3442805,61.0890317 26.8845787,62.6855716 L27.1144425,63.3579239 Z M25.936687,52.2914319 L25.8632254,52.8497457 L25.595446,52.8711279 C24.4319089,52.9614084 23.3773794,53.0041729 22.3726142,53.0041729 C16.7990109,53.0041729 11.6543286,51.927934 7.88645906,49.9678962 C7.18975865,49.6067741 6.56651985,49.2290214 6.03333076,48.8488928 C5.44089844,48.4259998 4.94325529,48.0031068 4.55224995,47.5920928 L4.4503516,47.4756785 C3.95270845,46.9149889 3.61383716,46.4089428 3.38634315,45.9100241 L3.24415939,45.5180165 C3.0996059,45.0666139 3.03562321,44.7102434 3.03562321,44.3847583 L3.03562321,39.6141452 L3.57829122,40.0560446 C3.99536357,40.3957845 4.4503516,40.7260211 4.92903691,41.0396272 C6.21816964,41.8782858 7.73242665,42.6195364 9.43152255,43.2396211 C10.2632975,43.5484755 11.1495763,43.8264445 12.0666615,44.0687765 C13.5643304,44.4702872 15.1402004,44.7791417 16.7468769,44.9882124 L17.1947557,45.0428558 C20.5953172,45.4491182 24.1522809,45.4491182 27.5528424,45.0428558 L28.3253741,44.9478237 L28.0504855,45.5013859 C27.7827061,46.0406932 27.538624,46.5895038 27.3134997,47.1478176 L27.249517,47.3141238 C26.6215388,48.9177911 26.1783994,50.5927325 25.936687,52.2914319 Z M3.05932051,10.6412232 C3.96929655,6.87082331 11.441053,2.97213 22.3726142,2.97213 C33.3041754,2.97213 40.7783015,6.87082331 41.6882776,10.6412232 C41.7522603,10.9073132 41.7854365,11.1710274 41.7854365,11.4228625 C41.7854365,11.7958637 41.7001262,12.1997502 41.5295057,12.6559045 C41.2735749,13.3282568 40.8422842,13.979227 40.240373,14.5898084 C40.0034,14.8345162 39.7308812,15.0768481 39.4394045,15.3120526 C38.9559797,15.7016844 38.3777658,16.0913161 37.718981,16.4690689 C37.0933725,16.830191 36.3682353,17.1865615 35.5672668,17.5215498 C31.941581,19.0396881 27.2542565,19.8759709 22.3726142,19.8759709 C17.4933416,19.8759709 12.8060171,19.0396881 9.18033125,17.5215498 C8.38173248,17.1889373 7.65896505,16.8349426 7.0238776,16.4690689 C6.3603534,16.0865645 5.78213945,15.6969328 5.30345414,15.3096768 C5.00960771,15.0720965 4.73945857,14.8297646 4.50485537,14.5898084 C3.90531386,13.979227 3.4716534,13.3282568 3.21809237,12.6559045 C3.04510213,12.1997502 2.96216161,11.7958637 2.96216161,11.4228625 C2.96216161,11.1734032 2.99296809,10.909689 3.05932051,10.6412232 Z M69.6250161,22.206634 C57.7763697,22.206634 48.188445,26.7420426 47.3211241,32.7528251 L47.2832084,33.0236667 L47.0106895,33.0355457 C46.4016691,33.0664311 45.7713211,33.1258262 45.0769904,33.2232341 L44.7404889,33.2683744 L44.6717667,32.69343 L44.6717667,23.9385946 C44.7239008,23.5537145 44.7475981,23.2733697 44.7475981,23.0049039 C44.7475981,22.7364381 44.7239008,22.4537175 44.6741365,22.1163534 L44.6717667,12.3589291 C44.7239008,11.9740489 44.7475981,11.6913283 44.7475981,11.4228625 C44.7475981,5.01769669 34.9203307,0 22.3726142,0 C9.82726734,0 0,5.01769669 0,11.4228625 C0,11.6913283 0.0213275636,11.9716731 0.0710918785,12.3090372 L0.0734616078,22.0712132 C0.0213275636,22.4560933 0,22.7364381 0,23.0049039 C0,23.2709939 0.0213275636,23.5513387 0.0710918785,23.8887028 L0.0734616078,32.6981816 C0.0213275636,33.0830617 0,33.3634065 0,33.6294965 C0,33.8932107 0.0213275636,34.1830587 0.0710918785,34.5132954 L0.0734616078,43.3227742 C0.0213275636,43.7100302 0,43.990375 0,44.2588407 C0,44.5201791 0.0213275636,44.8100271 0.0710918785,45.1426396 L0.0734616078,53.9497426 C0.0213275636,54.3346228 0,54.6173434 0,54.8834333 C0,55.1495233 0.0213275636,55.4298681 0.0710918785,55.7672322 L0.0734616078,65.6386951 C0.0734616078,72.1365173 9.86755274,77.2278639 22.3726142,77.2278639 C27.5196662,77.2278639 32.3254772,76.3701989 36.2758159,74.7475252 L36.4298483,74.6833785 L36.572032,74.7712832 C40.0602735,76.8809966 44.0603766,78 48.1410504,78 C51.6127038,78 54.9445432,77.2183607 58.0512583,75.6788401 L58.1697447,75.619445 L58.2953404,75.6574579 C61.6887927,76.6838049 65.6059552,77.2278639 69.6250161,77.2278639 C82.1300775,77.2278639 91.9241687,72.1365173 91.9241687,65.6386951 L91.9241687,55.8194999 C91.9763027,55.4322439 92,55.1518991 92,54.8834333 C92,54.6149676 91.9763027,54.332247 91.9289081,53.9948829 L91.9241687,45.1925314 C91.9763027,44.8076513 92,44.5249307 92,44.2588407 C92,43.990375 91.9763027,43.7076544 91.9289081,43.3702903 L91.9241687,34.565563 C91.9763027,34.1806829 92,33.8979623 92,33.6294965 C92,27.2267065 82.1727327,22.206634 69.6250161,22.206634 L69.6250161,22.206634 Z" id="Fill-816"></path>
                </g>
                <g id="play_icon" transform="translate(299.000000, 143.000000)" fill-rule="nonzero" fill="#00A8E1">
                    <circle id="Oval-4" stroke="#00A8E1" stroke-width="2" fill-opacity="0.1" cx="20" cy="20" r="20"></circle>
                    <polygon id="Triangle-3" transform="translate(21.538461, 20.769231) rotate(90.000000) translate(-21.538461, -20.769231) " points="21.5384614 13.8461539 29.2307691 27.6923077 13.8461537 27.6923077"></polygon>
                </g>
                <text id="¿Cómo-funcionan-los" font-family="Lato-Bold, Lato" font-size="24" font-weight="bold" line-spacing="30">
                    <tspan x="21" y="68" fill="#333447">¿Cómo funcionan los</tspan>
                    <tspan x="21" y="98" font-size="20" fill="#00A8E1">PRESUPUESTOS PARTICIPATIVOS</tspan>
                    <tspan x="332.06" y="98" font-size="20" fill="#333447"></tspan>
                    <tspan x="21" y="128" fill="#333447">en CONSUL?</tspan>
                </text>
            </g>
        </g>
    </g>
</svg>