<?xml version="1.0" encoding="UTF-8"?>
<svg width="30px" height="30px" viewBox="0 0 30 30" version="1.1" xmlns="http://www.w3.org/2000/svg" xmlns:xlink="http://www.w3.org/1999/xlink">
    <!-- Generator: Sketch 47.1 (45422) - http://www.bohemiancoding.com/sketch -->
    <title>checkmark_icon</title>
    <desc>Created with Sketch.</desc>
    <defs></defs>
    <g id="Page-1" stroke="none" stroke-width="1" fill="none" fill-rule="evenodd">
        <g id="checkmark_icon" fill-rule="nonzero">
            <circle id="Oval-3" fill="#00A8E1" cx="15" cy="15" r="15"></circle>
            <path d="M20.625,12.3088709 C20.625,12.5024194 20.5572581,12.6669355 20.4217742,12.8024194 L15.1669355,18.0572581 L14.1798387,19.0443548 C14.0443548,19.1798387 13.8798387,19.2475806 13.6862903,19.2475806 C13.4927419,19.2475806 13.3282258,19.1798387 13.1927419,19.0443548 L12.2056452,18.0572581 L9.57822581,15.4298387 C9.44274194,15.2943548 9.375,15.1298387 9.375,14.9362903 C9.375,14.7427419 9.44274194,14.5782258 9.57822581,14.4427419 L10.5653226,13.4556452 C10.7008064,13.3201613 10.8653226,13.2524194 11.0588709,13.2524194 C11.2524194,13.2524194 11.4169355,13.3201613 11.5524194,13.4556452 L13.6862903,15.5967742 L18.4475806,10.8282258 C18.5830645,10.6927419 18.7475806,10.625 18.9411291,10.625 C19.1346774,10.625 19.2991936,10.6927419 19.4346774,10.8282258 L20.4217742,11.8153226 C20.5572581,11.9508064 20.625,12.1153226 20.625,12.3088709 Z" id="Shape" fill="#FFFFFF"></path>
        </g>
    </g>
</svg>