<?xml version="1.0" encoding="UTF-8"?>
<svg width="360px" height="203px" viewBox="0 0 360 203" version="1.1" xmlns="http://www.w3.org/2000/svg" xmlns:xlink="http://www.w3.org/1999/xlink">
    <!-- Generator: Sketch 47.1 (45422) - http://www.bohemiancoding.com/sketch -->
    <title>debates_en</title>
    <desc>Created with Sketch.</desc>
    <defs>
        <rect id="path-1" x="0" y="0" width="360" height="203"></rect>
    </defs>
    <g id="Page-1" stroke="none" stroke-width="1" fill="none" fill-rule="evenodd">
        <g id="en" transform="translate(-452.000000, 0.000000)">
            <g id="debates_en" transform="translate(452.000000, 0.000000)">
                <mask id="mask-2" fill="white">
                    <use xlink:href="#path-1"></use>
                </mask>
                <use id="Rectangle" fill-opacity="0.100000001" fill="#9B9B9B" xlink:href="#path-1"></use>
                <g id="play_icon" transform="translate(220.000000, 30.000000)">
                    <g id="debates" opacity="0.1" fill="#333447">
                        <path d="M101.496442,20 L76.066582,20 L76.066582,24.4997986 L101.496442,24.4997986 C103.166171,24.4997986 104.520128,25.8650342 104.520128,27.5384753 L104.520128,53.7108196 C104.520128,55.3865437 103.166171,56.7494964 101.496442,56.7494964 L89.6992951,56.7494964 L89.8992082,63.2218094 L78.4087462,56.8225525 L48.5012862,56.7494964 C46.8361006,56.7494964 45.4798717,55.3865437 45.4798717,53.7108196 L45.4798717,47.0490174 L41,47.0490174 L41,53.7108196 C41,57.8681678 44.366719,61.251578 48.5012862,61.251578 L77.1229412,61.251578 L94.6198844,71 L94.317743,61.251578 L101.496442,61.251578 C105.635553,61.251578 109,57.8681678 109,53.7108196 L109,27.5384753 C109,23.3834102 105.635553,20 101.496442,20" id="Fill-2553"></path>
                        <path d="M20.0993313,46.0226755 L20.3140677,39.0786479 L7.87743698,39.0786479 C6.06234892,39.0786479 4.5863184,37.5924302 4.5863184,35.762539 L4.5863184,7.93180477 C4.5863184,6.1041895 6.06234892,4.61797185 7.87743698,4.61797185 L64.122563,4.61797185 C65.9376511,4.61797185 67.4136816,6.1041895 67.4136816,7.93180477 L67.4136816,35.762539 C67.4136816,37.5924302 65.9376511,39.0786479 64.122563,39.0786479 L32.5382225,39.0786479 L20.0993313,46.0226755 Z M64.122563,0 L7.87743698,0 C3.53297963,0 0,3.55736323 0,7.93180477 L0,35.762539 C0,40.1369805 3.53297963,43.6966197 7.87743698,43.6966197 L15.5830848,43.6966197 L15.2666311,54 L33.7249239,43.6966197 L64.122563,43.6966197 C68.4670204,43.6966197 72,40.1369805 72,35.762539 L72,7.93180477 C72,3.55736323 68.4670204,0 64.122563,0 L64.122563,0 Z" id="Fill-2554"></path>
                    </g>
                    <circle id="Oval-4" stroke="#00A8E1" stroke-width="2" fill-opacity="0.1" fill="#00A8E1" fill-rule="nonzero" cx="99" cy="133" r="20"></circle>
                    <polygon id="Triangle-3" fill="#00A8E1" fill-rule="nonzero" transform="translate(100.538461, 133.769231) rotate(90.000000) translate(-100.538461, -133.769231) " points="100.538461 126.846154 108.230769 140.692308 92.8461537 140.692308"></polygon>
                </g>
                <text id="How-do-DEBATES-work" font-family="Lato-Bold, Lato" font-size="24" font-weight="bold" line-spacing="30">
                    <tspan x="21" y="68" fill="#333447">How do</tspan>
                    <tspan x="21" y="98" fill="#00A8E1">DEBATES</tspan>
                    <tspan x="124.488" y="98" fill="#333447"></tspan>
                    <tspan x="21" y="128" fill="#333447">work in CONSUL?</tspan>
                </text>
            </g>
        </g>
    </g>
</svg>