<?xml version="1.0" encoding="UTF-8"?>
<svg width="360px" height="203px" viewBox="0 0 360 203" version="1.1" xmlns="http://www.w3.org/2000/svg" xmlns:xlink="http://www.w3.org/1999/xlink">
    <!-- Generator: Sketch 47.1 (45422) - http://www.bohemiancoding.com/sketch -->
    <title>polls</title>
    <desc>Created with Sketch.</desc>
    <defs>
        <rect id="path-1" x="0" y="0" width="360" height="203"></rect>
    </defs>
    <g id="Page-1" stroke="none" stroke-width="1" fill="none" fill-rule="evenodd">
        <g id="polls">
            <mask id="mask-2" fill="white">
                <use xlink:href="#path-1"></use>
            </mask>
            <use id="Rectangle" fill-opacity="0.100000001" fill="#9B9B9B" xlink:href="#path-1"></use>
            <g id="play_icon" transform="translate(255.000000, 31.000000)">
                <g id="Group-2" opacity="0.1" fill="#333447">
                    <path d="M59.2245147,73.5282187 C58.6392215,77.5607195 55.2378466,80.4865088 51.13566,80.4865088 L27.7239321,80.4865088 C24.6152037,80.4865088 21.7272438,78.6979611 20.3641268,75.9324542 C18.6108143,72.373168 13.599883,63.6797578 4.92573513,59.8685993 C3.7063743,59.3343247 3.49073996,58.2352456 3.55491685,57.6729853 C3.62422788,57.0776508 4.29936872,56.4746838 5.36213795,56.0625291 C6.26831558,55.7088902 7.40809707,55.5206221 8.65826281,55.5206221 C11.6643081,55.5206221 16.3517879,56.8537643 18.2770945,58.7644319 C18.7853754,59.2681764 19.5477968,59.4182822 20.2075352,59.1460565 C20.8749748,58.8738309 21.3036764,58.2377898 21.3036764,57.5254237 L21.3036764,50.2363923 L21.3062435,50.1168166 L21.3062435,20.3297381 C21.3062435,18.5284696 22.8798607,16.5134912 24.9899967,16.5134912 C25.9013085,16.5134912 26.7664129,16.9103809 27.4210172,17.6303795 C28.0781885,18.3554664 28.4529815,19.3197047 28.4529815,20.2864873 L28.6711829,47.030745 C28.6788841,47.989895 29.4746775,48.7734977 30.445032,48.7734977 L30.5528492,48.7734977 C31.5283379,48.7734977 32.3241312,47.9848067 32.3241312,47.01548 L32.3241312,37.5257462 C32.3241312,35.7321102 33.9259863,34.2692156 35.8975002,34.2692156 C37.8664471,34.2692156 39.4683022,35.7321102 39.4683022,37.5257462 L39.4683022,47.9262909 C39.4683022,48.3944172 39.6556987,48.8371018 39.9894185,49.1678432 C40.3180041,49.4960404 40.7749436,49.6843086 41.2472855,49.6843086 L41.4629198,49.6817644 C42.4384085,49.6817644 43.2316348,48.8930734 43.2316348,47.9262909 L43.2316348,41.1460924 C43.2316348,39.3499122 44.8334898,37.8895618 46.8050038,37.8895618 C48.7739506,37.8895618 50.3758057,39.3499122 50.3758057,41.1460924 L50.3758057,48.8371018 C50.3758057,49.8038843 51.1715991,50.5925753 52.1496548,50.5925753 L52.3678562,50.5925753 C53.345912,50.5925753 54.1391383,49.8038843 54.1391383,48.8371018 L54.1391383,45.145519 C54.1391383,44.3186656 54.4754252,43.4714588 55.0581513,42.8226968 C55.7204568,42.0899774 56.5958295,41.7363386 57.4480985,41.8686351 C60.1229911,42.2655248 60.3309242,45.0233991 60.3309242,45.8578851 L60.3309242,45.9367542 C60.3386255,46.0843158 60.9880955,61.3111406 59.2245147,73.5282187 Z M63.8734883,45.8222668 C63.860653,41.8406493 61.5451509,38.9250367 57.9717819,38.3958505 C56.4931465,38.1694199 54.9503341,38.5256029 53.6770647,39.3829863 C52.8478993,36.4597413 50.0215493,34.3735264 46.8050038,34.3735264 C45.3238012,34.3735264 43.9221781,34.7984018 42.7233538,35.6023578 C41.8300116,32.7299961 39.0781067,30.7582685 35.8975002,30.7582685 C34.5343832,30.7582685 33.2303089,31.1195399 32.0905274,31.8090085 L31.9955456,20.2712223 C31.9955456,18.457233 31.2895998,16.6381553 30.0522695,15.2795714 C28.7173903,13.8090443 26.9204375,13 24.9899967,13 C21.1419507,13 17.7636794,16.4244455 17.7636794,20.3297381 L17.7636794,49.5469237 L17.7611123,49.6664994 L17.7611123,54.1951123 C14.7370974,52.6965994 10.9686307,52.009675 8.65826281,52.009675 C6.96399302,52.009675 5.37497333,52.2819006 4.06319778,52.7932777 C1.69378716,53.7142652 0.266493216,55.3043681 0.0354564265,57.2659189 C-0.205848664,59.2987064 0.767072925,61.8861218 3.49073996,63.0818791 C11.0969845,66.4223671 15.5970677,74.258394 17.1809533,77.4716738 C19.1293635,81.4380263 23.2700562,84 27.7239321,84 L51.13566,84 C53.959443,84 56.6856771,82.9925108 58.8112156,81.1607124 C60.9393211,79.3314581 62.330676,76.7974702 62.7285727,74.0243308 C64.5229584,61.6138962 63.9017262,46.4532196 63.8734883,45.8222668 L63.8734883,45.8222668 Z" id="Fill-641"></path>
                    <path d="M15.9355958,39 L15.9355958,34.9738774 C10.7734183,31.9355863 7.56904056,26.4367436 7.56904056,20.447854 C7.56904056,11.1369618 15.1648899,3.5644468 24.5012931,3.5644468 C33.8351101,3.5644468 41.4309594,11.1369618 41.4309594,20.447854 C41.4309594,23.989088 40.3395572,27.3807288 38.2731344,30.2591098 L38.071406,30.540242 L38.3998612,30.6537266 C39.3516054,30.9787051 40.2231754,31.4661729 40.9887088,32.1083923 L41.2059547,32.2889359 L41.3663029,32.0568084 C43.7456633,28.6316381 45,24.6184115 45,20.447854 C45,9.17419483 35.8058412,0 24.5012931,0 C13.1941588,0 4,9.17419483 4,20.447854 C4,28.4149858 8.68113291,35.6573639 15.9355958,39" id="Fill-642"></path>
                    <path d="M33.8480783,28.8547939 C36.4813881,26.4703566 38,23.1178786 38,19.627837 C38,12.6655859 32.1668516,7 24.9986886,7 C17.8279028,7 12,12.6655859 12,19.627837 C12,23.2044928 13.5736911,26.6002779 16.3119136,29 L16.3119136,23.0440019 C15.858166,21.9613247 15.6168667,20.8022233 15.6168667,19.627837 C15.6168667,14.6042149 19.8264905,10.5180639 24.9986886,10.5180639 C30.1708867,10.5180639 34.3805104,14.6042149 34.3805104,19.627837 C34.3805104,20.6137101 34.1628165,21.5537286 33.8480783,22.4733673 L33.8480783,28.8547939" id="Fill-643"></path>
                </g>
                <circle id="Oval-4" stroke="#00A8E1" stroke-width="2" fill-opacity="0.1" fill="#00A8E1" fill-rule="nonzero" cx="64" cy="132" r="20"></circle>
                <polygon id="Triangle-3" fill="#00A8E1" fill-rule="nonzero" transform="translate(65.538461, 132.769231) rotate(90.000000) translate(-65.538461, -132.769231) " points="65.5384614 125.846154 73.2307691 139.692308 57.8461537 139.692308"></polygon>
            </g>
            <text id="How-do-VOTING-work-i" font-family="Lato-Bold, Lato" font-size="24" font-weight="bold">
                <tspan x="21" y="68" fill="#333447">How do</tspan>
                <tspan x="21" y="97" fill="#00A8E1">VOTING</tspan>
                <tspan x="112.932" y="97" fill="#333447"></tspan>
                <tspan x="21" y="126" fill="#333447">work in CONSUL?</tspan>
            </text>
        </g>
    </g>
</svg>