<?xml version="1.0" encoding="UTF-8"?>
<svg width="360px" height="203px" viewBox="0 0 360 203" version="1.1" xmlns="http://www.w3.org/2000/svg" xmlns:xlink="http://www.w3.org/1999/xlink">
    <!-- Generator: Sketch 47.1 (45422) - http://www.bohemiancoding.com/sketch -->
    <title>proposals_en</title>
    <desc>Created with Sketch.</desc>
    <defs></defs>
    <g id="Page-1" stroke="none" stroke-width="1" fill="none" fill-rule="evenodd">
        <g id="en">
            <g id="proposals_en">
                <rect id="Rectangle" fill-opacity="0.100000001" fill="#9B9B9B" x="0" y="0" width="360" height="203"></rect>
                <g id="Group" opacity="0.05" transform="translate(220.000000, 30.000000)" fill="#333447">
                    <path d="M73.772331,71.8708403 C70.9294171,75.8563399 67.2833632,81.8972751 65.4956206,88.7927172 L65.2704726,89.6604212 L45.7128377,89.6604212 L45.4876896,88.7894179 C44.0628723,83.2433709 41.31405,77.5917478 37.321873,71.9929127 C29.9457547,62.6296281 31.0916574,49.1851656 39.852268,41.2801515 C48.767458,33.2464665 62.2124919,33.2431673 71.1243214,41.2801515 C80.0361509,49.320435 81.1753327,62.4679646 73.772331,71.8708403 Z M64.5244597,94.2100933 C64.4404492,95.0777972 64.390043,95.955399 64.3833221,96.8395992 L64.36652,97.9811413 L46.6503944,97.9811413 L46.5966277,96.8395992 C46.5865465,95.9718952 46.5395006,95.0942935 46.4554901,94.2100933 L46.3345151,92.9464788 L64.6454348,92.9464788 L64.5244597,94.2100933 Z M64.3766013,103.929697 C64.3766013,104.88978 63.5499384,105.701397 62.5720566,105.701397 L48.4078932,105.701397 C47.4300115,105.701397 46.6033485,104.88978 46.6033485,103.929697 L46.6033485,101.2639 L64.3766013,101.267199 L64.3766013,103.929697 Z M74.7770961,37.3771333 C69.5012393,32.6196082 62.6527067,30 55.4882947,30 C48.3238827,30 41.4753501,32.6196082 36.1994933,37.3771333 C30.9269969,42.1346585 27.6942744,48.620993 27.0994803,55.6385076 C26.5080467,62.5999348 28.5679832,69.4887785 32.8995624,75.0381247 C36.703556,80.3796179 41.2031562,88.5188791 41.2031562,97.1794224 L41.2031562,103.929697 C41.2031562,107.829416 44.4325183,111 48.4078932,111 L62.5720566,111 C66.5440711,111 69.7734332,107.829416 69.7734332,103.929697 L69.7734332,97.1794224 C69.7734332,88.5485724 74.2931959,80.3895157 78.0837478,75.0612195 C82.4455709,69.4755814 84.4987865,62.5867378 83.8972716,55.6253106 C83.2923963,48.6143945 80.052953,42.1346585 74.7770961,37.3771333 L74.7770961,37.3771333 Z" id="Fill-628"></path>
                    <path d="M54.9984837,15 C56.1023503,15 57,14.0131579 57,12.7988403 L57,2.20450491 C57,0.986842105 56.1023503,0 54.9984837,0 C53.8976497,0 53,0.986842105 53,2.20450491 L53,12.7988403 C53,14.0131579 53.8976497,15 54.9984837,15" id="Fill-629"></path>
                    <path d="M18.7214647,18.4980235 C18.3003589,18.1649085 17.7860576,18 17.275208,18 C16.6193875,18 15.9670188,18.2704499 15.5182995,18.7915606 C15.1317106,19.2368134 14.9522229,19.8008004 15.0109016,20.3812781 C15.0661286,20.9584577 15.3560702,21.4795685 15.8254996,21.8489634 L24.2786801,28.5211596 C25.2140871,29.2632477 26.7086674,29.1247246 27.4783935,28.2309207 C27.8649824,27.7823697 28.0479218,27.2183828 27.9892431,26.6412032 C27.9305645,26.0607254 27.6406228,25.5396147 27.1711934,25.1702198 L18.7214647,18.4980235" id="Fill-630"></path>
                    <path d="M12.7779986,53 L12.3752381,53.0319355 L12.3752381,53.0351291 L1.83577479,54.8203236 C0.624108814,55.0247108 -0.181412146,56.1200985 0.0351985325,57.2633894 C0.251809211,58.3875191 1.38901527,59.1859066 2.62437304,58.9623581 L13.1638364,57.1771636 C13.7493621,57.0781635 14.2604279,56.7683891 14.5988821,56.3085179 C14.9407208,55.8454532 15.0693334,55.2865819 14.9644126,54.7340977 C14.8594918,54.17842 14.5311913,53.6961939 14.0438172,53.3768389 C13.6647485,53.127742 13.2281426,53 12.7779986,53" id="Fill-631"></path>
                    <path d="M94.5065852,18.7820238 C94.0894147,18.267274 93.4893311,18 92.8828294,18 C92.4046879,18 91.9233373,18.1682836 91.5286299,18.5048508 L83.7596322,25.1801002 C82.8643202,25.9489253 82.7423781,27.3215915 83.4900759,28.2422018 C84.2056837,29.1265156 85.5983913,29.2618024 86.4712402,28.5160751 L94.2402379,21.8441253 C94.6734534,21.4745614 94.9398007,20.9499125 94.9911447,20.3691691 C95.0424888,19.7917254 94.8692026,19.2274804 94.5065852,18.7820238" id="Fill-632"></path>
                    <path d="M108.16432,54.8205825 L97.6247808,53.035134 L97.2287866,53 C96.1728019,53 95.2285079,53.715457 95.0355876,54.7343444 C94.9306661,55.2869072 95.0592796,55.8458579 95.4011208,56.3089886 C95.7395774,56.7689252 96.2506469,57.0787436 96.8361769,57.1777578 L107.375716,58.9632062 C108.604314,59.1835925 109.751682,58.3882854 109.964909,57.2639959 C110.181522,56.1205423 109.37261,55.0249988 108.16432,54.8205825" id="Fill-633"></path>
                </g>
                <g id="play_icon" transform="translate(299.000000, 143.000000)" fill-rule="nonzero" fill="#00A8E1">
                    <circle id="Oval-4" stroke="#00A8E1" stroke-width="2" fill-opacity="0.1" cx="20" cy="20" r="20"></circle>
                    <polygon id="Triangle-3" transform="translate(21.538461, 20.769231) rotate(90.000000) translate(-21.538461, -20.769231) " points="21.5384614 13.8461539 29.2307691 27.6923077 13.8461537 27.6923077"></polygon>
                </g>
                <text id="How-do-CITIZEN-PROPO" font-family="Lato-Bold, Lato" font-size="24" font-weight="bold" line-spacing="30">
                    <tspan x="21" y="68" fill="#333447">How do</tspan>
                    <tspan x="21" y="98" fill="#00A8E1">CITIZEN PROPOSALS</tspan>
                    <tspan x="256.488" y="98" fill="#333447"></tspan>
                    <tspan x="21" y="128" fill="#333447">work in CONSUL?</tspan>
                </text>
            </g>
        </g>
    </g>
</svg>