<?xml version="1.0" encoding="UTF-8"?>
<svg width="48px" height="48px" viewBox="0 0 48 48" version="1.1" xmlns="http://www.w3.org/2000/svg" xmlns:xlink="http://www.w3.org/1999/xlink">
    <!-- Generator: Sketch 47.1 (45422) - http://www.bohemiancoding.com/sketch -->
    <title>Check symbol</title>
    <desc>Created with Sketch.</desc>
    <defs></defs>
    <g id="Page-1" stroke="none" stroke-width="1" fill="none" fill-rule="evenodd">
        <g id="00---LANDING" transform="translate(-568.000000, -878.000000)">
            <g id="TIME-FOR-SMART-CITIES" transform="translate(226.000000, 878.000000)">
                <g id="Group-9">
                    <g id="Check-symbol" transform="translate(342.000000, 0.000000)">
                        <g id="check">
                            <circle id="Oval-3" fill="#00A8E1" cx="24" cy="24" r="24"></circle>
                            <path d="M33,19.6941935 C33,20.003871 32.8916129,20.2670968 32.6748387,20.483871 L24.2670968,28.8916129 L22.6877419,30.4709677 C22.4709677,30.6877419 22.2077419,30.796129 21.8980645,30.796129 C21.5883871,30.796129 21.3251613,30.6877419 21.1083871,30.4709677 L19.5290323,28.8916129 L15.3251613,24.6877419 C15.1083871,24.4709677 15,24.2077419 15,23.8980645 C15,23.5883871 15.1083871,23.3251613 15.3251613,23.1083871 L16.9045161,21.5290323 C17.1212903,21.3122581 17.3845161,21.203871 17.6941935,21.203871 C18.003871,21.203871 18.2670968,21.3122581 18.483871,21.5290323 L21.8980645,24.9548387 L29.516129,17.3251613 C29.7329032,17.1083871 29.996129,17 30.3058065,17 C30.6154839,17 30.8787097,17.1083871 31.0954839,17.3251613 L32.6748387,18.9045161 C32.8916129,19.1212903 33,19.3845161 33,19.6941935 Z" id="Shape" fill="#FFFFFF" fill-rule="nonzero"></path>
                        </g>
                    </g>
                </g>
            </g>
        </g>
    </g>
</svg>