<?xml version="1.0" encoding="UTF-8" standalone="no"?>
<svg
   xmlns:dc="http://purl.org/dc/elements/1.1/"
   xmlns:cc="http://creativecommons.org/ns#"
   xmlns:rdf="http://www.w3.org/1999/02/22-rdf-syntax-ns#"
   xmlns:svg="http://www.w3.org/2000/svg"
   xmlns="http://www.w3.org/2000/svg"
   xmlns:sodipodi="http://sodipodi.sourceforge.net/DTD/sodipodi-0.dtd"
   xmlns:inkscape="http://www.inkscape.org/namespaces/inkscape"
   width="10in"
   height="1.76667in"
   viewBox="0 0 3000 530"
   version="1.1"
   id="svg8432"
   sodipodi:docname="consul_logo2d-redone.svg"
   inkscape:version="0.92.5 (2060ec1f9f, 2020-04-08)">
  <metadata
     id="metadata8438">
    <rdf:RDF>
      <cc:Work
         rdf:about="">
        <dc:format>image/svg+xml</dc:format>
        <dc:type
           rdf:resource="http://purl.org/dc/dcmitype/StillImage" />
        <dc:title></dc:title>
      </cc:Work>
    </rdf:RDF>
  </metadata>
  <defs
     id="defs8436" />
  <sodipodi:namedview
     pagecolor="#ffffff"
     bordercolor="#666666"
     borderopacity="1"
     objecttolerance="10"
     gridtolerance="10"
     guidetolerance="10"
     inkscape:pageopacity="0"
     inkscape:pageshadow="2"
     inkscape:window-width="1920"
     inkscape:window-height="1043"
     id="namedview8434"
     showgrid="false"
     inkscape:zoom="1.3"
     inkscape:cx="383.48603"
     inkscape:cy="84.800159"
     inkscape:window-x="0"
     inkscape:window-y="0"
     inkscape:window-maximized="1"
     inkscape:current-layer="svg8432" />
  <path
     id="Selection"
     d="M 148.00,285.00            C 148.00,285.00 134.99,309.00 134.99,309.00              120.56,333.55 98.51,362.33 78.00,381.96              67.64,391.88 56.61,401.42 45.00,409.85              45.00,409.85 26.37,422.61 26.37,422.61              23.69,425.56 25.89,428.20 27.58,431.00              27.58,431.00 38.34,448.00 38.34,448.00              38.34,448.00 74.05,504.00 74.05,504.00              74.05,504.00 83.69,519.00 83.69,519.00              84.93,520.92 87.32,524.88 89.32,525.89              92.89,527.68 105.22,521.49 109.00,519.77              127.60,511.28 145.50,501.26 162.00,489.12              172.96,481.04 183.05,472.35 193.00,463.09              193.00,463.09 200.91,455.96 200.91,455.96              262.85,392.37 304.16,302.06 308.04,213.00              308.04,213.00 309.00,202.00 309.00,202.00              309.66,145.22 296.58,80.82 254.00,40.04              246.98,33.32 239.13,27.63 231.00,22.34              221.15,15.95 210.10,11.36 199.00,7.67              188.41,4.14 169.05,0.13 158.00,0.00              158.00,0.00 136.00,0.00 136.00,0.00              110.45,0.04 80.73,11.47 60.00,26.04              31.71,45.92 11.95,75.57 3.63,109.00              1.82,116.25 0.09,125.55 0.00,133.00              0.00,133.00 0.00,151.00 0.00,151.00              0.03,172.35 8.02,197.07 19.44,215.00              38.18,244.45 71.16,264.76 104.00,274.98              104.00,274.98 132.00,282.00 132.00,282.00              132.00,282.00 148.00,285.00 148.00,285.00 Z            M 541.00,284.00            C 537.61,295.87 521.25,321.42 513.71,332.00              487.25,369.12 456.19,400.40 417.00,424.00              417.00,424.00 433.31,450.00 433.31,450.00              433.31,450.00 464.58,499.00 464.58,499.00              464.58,499.00 477.34,519.00 477.34,519.00              478.62,520.97 481.20,525.57 483.38,526.33              485.92,527.24 491.53,524.61 494.00,523.58              494.00,523.58 519.00,511.75 519.00,511.75              555.51,493.49 589.96,463.22 615.92,432.00              652.69,387.78 677.97,334.61 691.87,279.00              696.37,261.01 701.97,229.22 702.00,211.00              702.00,211.00 702.00,179.00 702.00,179.00              701.98,165.57 698.18,141.22 694.87,128.00              679.85,67.89 645.57,20.51 583.00,4.87              575.16,2.91 558.87,0.10 551.00,0.00              551.00,0.00 529.00,0.00 529.00,0.00              504.67,0.04 476.05,10.98 456.00,24.35              426.23,44.21 404.22,77.13 396.42,112.00              396.42,112.00 393.83,131.00 393.83,131.00              393.83,131.00 393.00,140.00 393.00,140.00              392.76,161.14 397.44,186.19 407.32,205.00              427.58,243.60 466.61,267.48 508.00,277.87              517.69,280.31 531.21,283.91 541.00,284.00 Z            M 2090.00,3.00            C 2090.00,3.00 2090.00,224.00 2090.00,224.00              2090.00,224.00 2112.00,224.00 2112.00,224.00              2112.00,224.00 2112.00,3.00 2112.00,3.00              2112.00,3.00 2090.00,3.00 2090.00,3.00 Z            M 1320.00,194.00            C 1316.90,191.93 1307.32,184.60 1304.01,185.01              1301.18,185.37 1298.77,188.91 1296.83,190.83              1294.05,193.58 1289.40,197.17 1286.00,199.12              1270.05,208.28 1247.36,208.37 1231.00,200.19              1198.22,183.80 1189.12,136.48 1211.52,108.00              1225.20,90.60 1240.81,85.75 1262.00,86.00              1272.31,86.12 1282.72,90.11 1291.00,96.16              1294.23,98.52 1301.49,106.67 1304.01,106.99              1307.32,107.40 1316.90,100.07 1320.00,98.00              1301.90,61.13 1243.28,58.49 1212.00,78.70              1188.58,93.83 1176.36,120.45 1177.01,148.00              1177.63,173.93 1189.31,197.87 1211.00,212.48              1238.92,231.29 1285.21,231.25 1310.00,206.99              1314.77,202.32 1317.04,200.03 1320.00,194.00 Z            M 1414.00,66.21            C 1394.21,69.30 1378.61,74.11 1364.09,89.04              1334.80,119.15 1334.86,172.81 1364.09,202.96              1378.53,217.86 1400.48,225.76 1421.00,226.00              1431.71,226.12 1446.29,223.76 1456.00,219.22              1473.01,211.26 1485.09,201.08 1493.63,184.00              1499.07,173.11 1501.98,159.14 1502.00,147.00              1502.05,116.03 1488.58,88.66 1460.00,74.37              1449.47,69.10 1434.75,66.05 1423.00,66.21              1423.00,66.21 1414.00,66.21 1414.00,66.21 Z            M 1566.00,94.00            C 1566.00,94.00 1565.00,75.00 1565.00,75.00              1565.00,75.00 1563.98,68.60 1563.98,68.60              1563.98,68.60 1558.00,67.00 1558.00,67.00              1558.00,67.00 1545.60,68.02 1545.60,68.02              1545.60,68.02 1544.00,76.00 1544.00,76.00              1544.00,76.00 1544.00,105.00 1544.00,105.00              1544.00,105.00 1544.00,224.00 1544.00,224.00              1544.00,224.00 1566.00,224.00 1566.00,224.00              1566.00,224.00 1566.00,154.00 1566.00,154.00              1566.00,136.99 1565.44,120.38 1576.53,106.00              1595.03,81.99 1636.62,77.72 1656.67,102.00              1664.37,111.31 1665.07,119.68 1666.17,131.00              1666.17,131.00 1667.00,140.00 1667.00,140.00              1667.00,140.00 1667.00,224.00 1667.00,224.00              1667.00,224.00 1689.00,224.00 1689.00,224.00              1689.00,224.00 1689.00,139.00 1689.00,139.00              1689.00,139.00 1688.09,129.00 1688.09,129.00              1687.23,116.43 1686.61,106.34 1679.98,95.00              1664.31,68.16 1633.50,62.22 1605.00,68.00              1590.02,71.04 1573.41,80.20 1566.00,94.00 Z            M 1734.00,189.00            C 1731.33,191.36 1730.99,191.90 1729.23,195.00              1727.74,197.65 1724.14,202.98 1724.81,205.96              1725.49,208.99 1729.50,211.13 1732.00,212.57              1739.64,216.99 1747.49,219.74 1756.00,221.87              1782.37,228.50 1823.21,229.13 1842.82,207.00              1847.42,201.80 1849.90,195.73 1851.36,189.00              1852.31,184.41 1852.22,177.62 1851.36,173.00              1845.81,142.08 1807.84,140.07 1783.00,135.20              1774.03,133.44 1761.56,129.86 1755.39,122.83              1743.53,109.31 1756.13,92.90 1770.00,88.10              1783.85,83.30 1805.27,84.95 1819.00,89.70              1819.00,89.70 1838.00,98.00 1838.00,98.00              1838.00,98.00 1847.00,81.00 1847.00,81.00              1824.79,66.54 1786.07,61.32 1761.00,70.44              1742.91,77.01 1729.24,89.69 1729.00,110.00              1728.94,115.41 1728.86,118.71 1730.44,124.00              1738.53,151.15 1772.74,153.15 1796.00,157.80              1806.56,159.91 1822.06,162.83 1827.91,173.00              1829.51,175.78 1829.98,178.84 1829.97,182.00              1829.93,194.57 1818.17,202.57 1807.00,204.99              1783.03,210.17 1753.50,203.93 1734.00,189.00 Z            M 2010.00,197.00            C 2010.00,197.00 2011.00,224.00 2011.00,224.00              2011.00,224.00 2032.00,224.00 2032.00,224.00              2032.00,224.00 2032.00,76.00 2032.00,76.00              2032.00,74.01 2032.23,70.19 2030.98,68.60              2029.15,66.28 2020.93,66.98 2018.00,67.00              2016.18,67.01 2013.08,66.85 2011.60,68.02              2009.08,70.01 2010.00,82.52 2010.00,86.00              2010.00,86.00 2010.00,148.00 2010.00,148.00              2009.98,162.96 2006.34,178.79 1995.91,190.00              1976.44,210.91 1937.67,212.54 1919.53,189.00              1912.37,179.72 1910.14,165.49 1910.00,154.00              1910.00,154.00 1910.00,76.00 1910.00,76.00              1909.98,67.36 1909.64,67.02 1901.00,67.00              1898.47,66.99 1891.44,66.57 1889.60,68.02              1887.90,69.37 1888.04,72.05 1888.00,74.00              1888.00,74.00 1888.00,98.00 1888.00,98.00              1888.00,98.00 1888.00,145.00 1888.00,145.00              1888.00,160.84 1888.21,177.15 1894.46,192.00              1907.80,223.67 1949.05,232.14 1979.00,222.00              1990.57,218.08 2005.41,208.70 2010.00,197.00 Z            M 1412.00,86.29            C 1430.59,84.53 1449.12,87.31 1462.91,101.09              1489.71,127.87 1484.83,180.74 1451.00,199.49              1439.23,206.01 1429.92,206.15 1417.00,206.00              1408.75,205.90 1400.14,203.20 1393.00,199.13              1367.25,184.43 1358.63,151.24 1367.52,124.00              1374.22,103.46 1390.88,89.80 1412.00,86.29 Z            M 988.00,228.00            C 988.00,228.00 988.00,321.00 988.00,321.00              980.24,311.51 974.22,304.88 963.00,299.27              955.17,295.36 943.77,292.11 935.00,292.00              917.85,291.80 904.58,292.28 889.00,300.86              864.53,314.35 851.91,336.65 849.91,364.00              849.91,364.00 849.08,372.00 849.08,372.00              849.08,372.00 849.91,380.00 849.91,380.00              850.83,392.59 853.17,402.81 859.31,414.00              877.19,446.57 916.15,459.40 951.00,449.85              964.43,446.17 982.41,435.08 988.00,422.00              988.00,422.00 989.00,451.00 989.00,451.00              989.00,451.00 1010.00,451.00 1010.00,451.00              1010.00,451.00 1010.00,228.00 1010.00,228.00              1010.00,228.00 988.00,228.00 988.00,228.00 Z            M 1197.00,427.00            C 1197.00,427.00 1186.00,413.00 1186.00,413.00              1179.57,414.89 1178.25,418.46 1173.00,422.21              1168.21,425.64 1160.69,428.96 1155.00,430.57              1129.13,437.90 1099.53,429.82 1084.09,407.00              1076.45,395.70 1077.06,391.14 1074.00,379.00              1074.00,379.00 1198.00,379.00 1198.00,379.00              1199.99,379.00 1203.81,379.23 1205.40,377.98              1208.21,375.75 1206.69,366.27 1206.28,363.00              1204.36,347.36 1201.97,336.39 1192.91,323.00              1181.01,305.42 1158.47,292.25 1137.00,292.00              1137.00,292.00 1124.00,292.00 1124.00,292.00              1096.48,292.13 1070.19,311.02 1059.43,336.00              1046.86,365.17 1050.65,402.93 1072.17,427.00              1102.39,460.80 1167.46,462.66 1197.00,427.00 Z            M 1272.00,319.00            C 1272.00,319.00 1271.00,293.00 1271.00,293.00              1271.00,293.00 1249.00,293.00 1249.00,293.00              1249.00,293.00 1249.00,451.00 1249.00,451.00              1249.00,451.00 1271.00,451.00 1271.00,451.00              1271.00,451.00 1271.00,373.00 1271.00,373.00              1271.16,359.32 1273.43,343.22 1281.76,332.00              1290.39,320.38 1304.33,312.18 1319.00,312.00              1335.40,311.81 1346.19,312.79 1357.82,326.00              1366.37,335.73 1368.98,350.38 1369.00,363.00              1369.00,363.00 1369.00,451.00 1369.00,451.00              1369.00,451.00 1391.00,451.00 1391.00,451.00              1391.00,451.00 1391.00,382.00 1391.00,382.00              1391.00,362.95 1390.21,346.09 1402.68,330.00              1418.38,309.74 1454.57,304.67 1473.99,322.18              1483.96,331.17 1487.98,344.93 1488.00,358.00              1488.00,358.00 1488.00,451.00 1488.00,451.00              1488.00,451.00 1511.00,451.00 1511.00,451.00              1511.00,451.00 1511.00,365.00 1511.00,365.00              1511.00,365.00 1510.09,355.00 1510.09,355.00              1509.38,344.62 1509.09,335.82 1504.69,326.00              1495.43,305.32 1476.90,292.27 1454.00,292.00              1437.63,291.81 1426.24,291.65 1411.00,299.27              1398.10,305.72 1392.14,312.53 1384.00,324.00              1375.57,304.54 1356.17,292.25 1335.00,292.00              1323.92,291.87 1315.83,291.40 1305.00,294.59              1291.82,298.48 1278.44,306.49 1272.00,319.00 Z            M 1619.00,292.21            C 1605.22,294.68 1595.55,297.67 1584.00,305.91              1562.62,321.16 1554.37,339.66 1551.83,365.00              1551.83,365.00 1551.08,372.00 1551.08,372.00              1551.08,372.00 1551.92,380.00 1551.92,380.00              1553.33,397.62 1558.66,412.40 1570.30,426.00              1585.03,443.21 1607.47,452.73 1630.00,453.00              1661.08,453.36 1689.65,439.58 1704.03,411.00              1709.08,400.96 1710.98,392.05 1712.16,381.00              1716.23,343.02 1696.29,305.91 1658.00,295.15              1650.71,293.11 1645.60,292.01 1638.00,292.21              1638.00,292.21 1619.00,292.21 1619.00,292.21 Z            M 1883.00,420.00            C 1883.00,420.00 1866.00,410.00 1866.00,410.00              1848.04,436.80 1806.94,440.79 1783.00,419.82              1775.28,413.06 1769.71,405.55 1765.92,396.00              1758.02,376.04 1761.46,348.61 1775.32,332.00              1781.42,324.70 1790.09,318.45 1799.00,315.06              1809.31,311.15 1820.19,310.18 1831.00,312.08              1846.07,314.73 1856.78,321.81 1866.00,334.00              1869.70,332.82 1882.48,326.23 1882.13,321.91              1881.82,318.20 1872.89,309.72 1870.00,307.18              1860.03,298.42 1842.26,292.16 1829.00,292.00              1808.51,291.76 1797.77,291.81 1779.00,301.78              1734.86,325.22 1726.65,389.03 1758.30,426.00              1774.40,444.81 1798.72,453.28 1823.00,453.00              1839.25,452.81 1857.25,447.41 1870.00,437.19              1875.62,432.69 1881.23,427.17 1883.00,420.00 Z            M 1947.00,320.00            C 1947.00,320.00 1946.00,293.00 1946.00,293.00              1946.00,293.00 1924.00,293.00 1924.00,293.00              1924.00,293.00 1924.00,451.00 1924.00,451.00              1924.00,451.00 1946.00,451.00 1946.00,451.00              1946.00,451.00 1946.00,423.00 1946.00,423.00              1946.00,423.00 1946.00,402.00 1946.00,402.00              1946.00,402.00 1947.06,367.00 1947.06,367.00              1947.06,367.00 1947.06,358.00 1947.06,358.00              1948.84,346.08 1954.22,334.33 1963.00,326.09              1967.91,321.49 1973.58,317.85 1980.00,315.75              1984.98,314.11 1990.76,313.06 1996.00,313.00              1996.00,313.00 2004.00,313.00 2004.00,313.00              2004.00,313.00 2004.00,292.00 2004.00,292.00              2004.00,292.00 1997.00,292.00 1997.00,292.00              1977.81,292.09 1955.72,302.23 1947.00,320.00 Z            M 2030.00,329.00            C 2030.00,329.00 2056.00,315.81 2056.00,315.81              2080.35,306.56 2117.46,308.39 2126.22,338.00              2128.42,345.45 2128.00,353.33 2128.00,361.00              2128.00,361.00 2080.00,361.00 2080.00,361.00              2070.13,361.02 2056.35,362.58 2047.00,365.67              2039.18,368.26 2031.66,372.62 2026.33,379.00              2013.45,394.43 2013.97,419.98 2027.18,435.00              2044.26,454.41 2078.82,456.75 2102.00,448.66              2111.99,445.17 2123.99,438.23 2128.00,428.00              2128.00,428.00 2129.00,451.00 2129.00,451.00              2129.00,451.00 2150.00,451.00 2150.00,451.00              2150.00,451.00 2150.00,347.00 2150.00,347.00              2149.81,331.21 2143.64,314.47 2131.00,304.52              2109.38,287.49 2072.72,289.55 2048.00,298.00              2042.48,299.89 2033.87,303.94 2029.00,307.09              2026.98,308.39 2023.40,310.71 2022.81,313.17              2022.06,316.34 2028.33,325.54 2030.00,329.00 Z            M 2335.00,420.00            C 2335.00,420.00 2318.00,410.00 2318.00,410.00              2300.04,436.80 2258.94,440.79 2235.00,419.82              2227.28,413.06 2221.71,405.55 2217.92,396.00              2210.02,376.04 2213.46,348.61 2227.32,332.00              2233.42,324.70 2242.09,318.45 2251.00,315.06              2261.31,311.15 2272.19,310.18 2283.00,312.08              2298.07,314.73 2308.78,321.81 2318.00,334.00              2321.70,332.82 2334.48,326.23 2334.13,321.91              2333.82,318.20 2324.89,309.72 2322.00,307.18              2312.03,298.42 2294.26,292.16 2281.00,292.00              2260.51,291.76 2249.77,291.81 2231.00,301.78              2186.86,325.22 2178.65,389.03 2210.30,426.00              2226.40,444.81 2250.72,453.28 2275.00,453.00              2291.25,452.81 2309.25,447.41 2322.00,437.19              2327.62,432.69 2333.23,427.17 2335.00,420.00 Z            M 2345.00,293.00            C 2345.00,293.00 2360.58,329.00 2360.58,329.00              2360.58,329.00 2395.86,408.00 2395.86,408.00              2395.86,408.00 2408.86,437.00 2408.86,437.00              2410.15,439.92 2413.78,447.19 2413.99,450.00              2414.25,453.42 2409.74,462.48 2408.14,466.00              2404.79,473.38 2399.55,481.57 2393.00,486.45              2378.31,497.37 2360.42,490.66 2348.00,480.00              2345.42,482.25 2344.81,483.10 2343.00,486.00              2341.68,488.13 2338.07,493.56 2338.24,495.91              2338.47,499.01 2343.57,502.06 2346.00,503.54              2355.20,509.11 2366.38,511.05 2377.00,511.00              2411.36,510.85 2422.57,485.25 2434.42,458.00              2434.42,458.00 2508.00,293.00 2508.00,293.00              2508.00,293.00 2494.00,293.00 2494.00,293.00              2494.00,293.00 2486.39,294.02 2486.39,294.02              2486.39,294.02 2481.70,302.00 2481.70,302.00              2481.70,302.00 2472.30,323.00 2472.30,323.00              2472.30,323.00 2444.14,387.00 2444.14,387.00              2444.14,387.00 2428.00,425.00 2428.00,425.00              2428.00,425.00 2426.00,425.00 2426.00,425.00              2426.00,425.00 2409.30,386.00 2409.30,386.00              2409.30,386.00 2381.42,323.00 2381.42,323.00              2381.42,323.00 2372.58,303.00 2372.58,303.00              2372.58,303.00 2367.51,294.02 2367.51,294.02              2367.51,294.02 2360.00,293.00 2360.00,293.00              2360.00,293.00 2345.00,293.00 2345.00,293.00 Z            M 924.00,311.29            C 944.07,309.41 963.99,316.81 976.47,333.00              983.26,341.81 987.87,354.86 988.00,366.00              988.00,366.00 988.00,377.00 988.00,377.00              987.91,395.33 978.38,413.73 963.00,423.90              950.87,431.92 940.04,433.16 926.00,433.00              896.23,432.65 872.35,406.19 872.00,377.00              871.85,364.23 871.86,356.01 877.31,344.00              886.67,323.40 902.50,314.57 924.00,311.29 Z            M 1185.00,362.00            C 1185.00,362.00 1074.00,362.00 1074.00,362.00              1074.00,362.00 1076.72,350.00 1076.72,350.00              1081.18,335.12 1090.00,323.47 1104.00,316.37              1110.64,313.00 1118.57,311.09 1126.00,311.00              1136.71,310.88 1143.91,310.98 1154.00,315.44              1171.65,323.23 1184.83,342.67 1185.00,362.00 Z            M 1627.00,311.28            C 1647.30,309.40 1666.99,317.52 1679.24,334.00              1695.92,356.43 1693.66,396.84 1673.83,416.83              1660.66,430.11 1645.87,433.21 1628.00,433.00              1598.28,432.65 1574.34,406.15 1574.00,377.00              1573.85,363.80 1574.17,354.20 1580.27,342.00              1590.37,321.79 1605.73,314.41 1627.00,311.28 Z            M 2128.00,378.00            C 2128.00,378.00 2128.00,397.00 2128.00,397.00              2128.00,399.67 2128.10,402.40 2127.37,405.00              2122.26,422.96 2100.81,434.79 2083.00,435.00              2070.08,435.15 2056.01,434.66 2046.18,424.82              2035.51,414.12 2036.87,393.87 2049.04,384.79              2055.61,379.88 2067.89,378.10 2076.00,378.00              2076.00,378.00 2128.00,378.00 2128.00,378.00 Z"
     style="fill:#ffffff;fill-opacity:1"
     stroke-width="1"
     stroke="black"
     fill="none" />
  <path
     id="Selection-3"
     d="m 148,285 -13.01,24 C 120.56,333.55 98.51,362.33 78,381.96 67.64,391.88 56.61,401.42 45,409.85 l -18.63,12.76 c -2.68,2.95 -0.48,5.59 1.21,8.39 l 10.76,17 35.71,56 9.64,15 c 1.24,1.92 3.63,5.88 5.63,6.89 3.57,1.79 15.9,-4.4 19.68,-6.12 18.6,-8.49 36.5,-18.51 53,-30.65 10.96,-8.08 21.05,-16.77 31,-26.03 l 7.91,-7.13 C 262.85,392.37 304.16,302.06 308.04,213 L 309,202 c 0.66,-56.78 -12.42,-121.179994 -55,-161.959994 -7.02,-6.72 -14.87,-12.41 -23,-17.7 -9.85,-6.39 -20.9,-10.98 -32,-14.6700006 -10.59,-3.53 -29.95,-7.54 -41,-7.6700000000001 H 136 C 110.45,0.0400054 80.73,11.470006 60,26.040006 31.71,45.920006 11.95,75.570006 3.63,109 1.82,116.25 0.09,125.55 0,133 v 18 c 0.03,21.35 8.02,46.07 19.44,64 18.74,29.45 51.72,49.76 84.56,59.98 l 28,7.02 z m 393,-1 c -3.39,11.87 -19.75,37.42 -27.29,48 -26.46,37.12 -57.52,68.4 -96.71,92 l 16.31,26 31.27,49 12.76,20 c 1.28,1.97 3.86,6.57 6.04,7.33 2.54,0.91 8.15,-1.72 10.62,-2.75 l 25,-11.83 c 36.51,-18.26 70.96,-48.53 96.92,-79.75 36.77,-44.22 62.05,-97.39 75.95,-153 4.5,-17.99 10.1,-49.78 10.13,-68 v -32 c -0.02,-13.43 -3.82,-37.78 -7.13,-51 C 679.85,67.890006 645.57,20.510006 583,4.8700054 c -7.84,-1.96 -24.13,-4.77 -32,-4.8699999999999 H 529 C 504.67,0.0400054 476.05,10.980006 456,24.350006 c -29.77,19.86 -51.78,52.78 -59.58,87.649994 l -2.59,19 -0.83,9 c -0.24,21.14 4.44,46.19 14.32,65 20.26,38.6 59.29,62.48 100.68,72.87 9.69,2.44 23.21,6.04 33,6.13 z"
     style="fill:#00a8e0;fill-opacity:1;stroke:#000000;stroke-width:1"
     inkscape:connector-curvature="0"
     sodipodi:nodetypes="ccccccccccccccccccccccccccccccccccccccccccccccccccccc" />
</svg>
