<?xml version="1.0" encoding="UTF-8"?>
<svg width="1200px" height="900px" viewBox="0 0 1200 900" version="1.1" xmlns="http://www.w3.org/2000/svg" xmlns:xlink="http://www.w3.org/1999/xlink">
    <title>Mapa de CONSUL</title>
    <desc>Lugares que utilizan este software libre para participación ciudadana.</desc>
    <defs></defs>
    <g id="Page-1" stroke="none" stroke-width="1" fill="none" fill-rule="evenodd">
        <g id="Mapa">
            <g id="spain" transform="translate(286.000000, -149.000000)" stroke-width="3" stroke="#000000">
                <polygon id="france" fill="#FFFFFF" points="646.144531 450.152344 664.382812 436.667969 686.410156 279.152344 661.859375 268.226563 646.4375 234.808594 633.652344 199.316406 563.167969 175.628906 550 129.054688 620.125 120.949219 644.535156 140.554687 687.726562 141.21875 668.898438 71.5390625 703.511719 78.6054688 703.125 95.4296875 756.0625 97.3203125 744.007812 83.7265625 785.851562 67.0664062 806.214844 51.9257812 807.988281 2.75 845.289062 0 948.949219 92.4335937 980.238281 85.4335938 1001.98047 104.46875 1060.91797 117.738281 1036.76172 210.019531 1016.50781 206.773438 995.136719 252.640625 988.570312 271.636719 1019.65234 269.816406 1022.43359 298.835937 1008.74609 307.40625 1030.46094 334.929688 1008.05859 348.96875 1026.24609 368.636719 1019.93359 395.472656 1057.54297 401.433594 1051.11328 427.390625 996.992188 472.871094 937.964844 454.1875 902.5 453.273437 863.710938 468.503906 879.289062 502.050781 690.816406 558.933594 647.824219 485.988281"></polygon>
                <polygon id="galicia" fill="#FFFFFF" points="391.368075 425.06 363.861972 410.413 333.035681 420.0094 338.726667 430.1114 316.910704 440.7184 283.713521 440.7184 285.136244 470.5184 302.209484 473.5488 293.672958 485.1658 309.79784 492.2369 301.261315 500.3181 308.849296 505.3689 302.209765 519.0059 303.15831 534.1579 323.07662 523.0459 335.407136 530.117 328.293427 541.734 374.295305 550.8254 376.1923 539.2084 392.317183 540.2186 392.791437 518.5006 405.121953 514.46 390.894723 492.237 404.173596 471.024"></polygon>
                <polygon id="asturias" fill="#FFFFFF" points="391.584038 424.91 440.685446 424.04778 451.593427 415.46148 460.129953 427.07848 515.449202 437.35848 497.456714 456.22448 458.817277 460.23968 457.509577 465.55038 443.473897 469.86148 441.102629 461.00998 404.053803 470.66248"></polygon>
                <polygon id="cantabria" fill="#FFFFFF" points="497.123944 456.34 515.53615 437.418 560.676056 431.1199 574.680751 442.5839 569.884977 455.2209 563.911925 461.2768 540.592676 465.1362 546.94939 476.8422 546.784178 485.1046 529.511878 485.69634 518.886526 466.62334 500.275258 465.25604"></polygon>
                <polygon id="castilla_leon" fill="#FFFFFF" points="391.837559 518.5 391.837559 539.71293 407.488263 539.71293 426.932394 572.03793 390.889202 606.38293 388.517934 648.80893 425.035305 638.70693 434.046009 651.33393 465.346479 655.87963 465.346479 668.00163 505.657277 655.37463 543.597183 601.83663 588.650704 587.18963 613.311737 605.37263 631.333333 599.81683 625.642347 581.12883 634.178873 582.64403 637.972864 545.77303 612.837653 531.12603 603.352207 542.23803 597.661221 532.13603 586.753239 543.24803 578.216714 528.09603 582.484977 491.22503 571.576995 477.08303 585.330047 476.57795 582.010329 465.97095 570.153991 455.36395 563.988732 461.42485 540.276056 464.96035 546.915587 476.57735 546.915587 485.16365 529.368169 485.66873 518.934366 466.47573 500.438592 465.46553 497.118873 456.37413 459.178967 459.90963 457.281972 465.46543 443.52892 469.50603 441.157653 460.91973 405.588638 470.01113 389.463756 492.23413 404.639343 513.95213"></polygon>
                <polygon id="madrid" fill="#FFFFFF" points="506.607512 656.89 542.650704 603.352 559.723944 596.2809 567.311925 606.8879 561.620939 622.0399 580.590892 663.4559 579.642347 676.5879 561.146573 674.5676 549.764413 690.7296 538.382254 689.2144 549.290235 670.0214"></polygon>
                <polygon id="pais_vasco" fill="#FFFFFF" points="570.156808 454.36 574.899343 442.743 591.498404 435.6719 610.942535 450.8239 642.243005 444.2579 651.253709 455.8749 639.397371 462.4409 637.974648 471.5323 619.004695 487.6943 616.633427 504.3623 584.384601 493.7553 570.631549 476.5823 583.436244 476.07723 582.962 470.01633"></polygon>
                <polygon id="rioja" fill="#FFFFFF" points="581.537089 492.24 616.157746 504.362 648.406573 527.09 637.455078 545.753906 611.889202 533.151 603.826948 543.253 596.238967 531.131 586.753521 542.748 577.742817 528.101"></polygon>
                <polygon id="navarra" fill="#FFFFFF" points="650.682629 455.87 637.268545 463.37 635.927136 474.084 618.153427 488.37 616.141408 504.441 646.65784 525.512 640.286291 541.583 654.370798 548.3687 669.125728 539.7973 665.436901 523.3683 664.430892 513.7254 671.13784 495.8684 681.869296 495.15412 690.588263 485.51122 686.899437 476.58262 658.06 474.43972 657.724657 464.08272"></polygon>
                <polygon id="aragon" fill="#FFFFFF" points="654.37277 548.1 669.1277 540.1562 663.901033 516.0792 671.139718 496.2272 681.871174 495.51292 691.260845 485.51292 694.614272 493.72722 764.921315 498.26552 760.676901 543.37052 742.567981 553.72752 747.859155 565.42652 751.286948 573.72752 743.018404 625.55652 730.160188 630.87032 712.386479 631.22747 712.051127 658.37047 683.93939 688.20447 644.981643 655.87047 650.625023 612.40347 631.625023 598.72747 626.201925 581.58447 633.579484 583.72737 637.105587 557.44637 638.020385 545.59937 640.957099 541.50487"></polygon>
                <polygon id="cataluna" fill="#FFFFFF" points="764.814085 497.98 774.160188 494.7552 783.481221 495.51589 792.535587 499.44449 804.164695 501.50379 811.650423 507.65879 842.837277 511.23019 879.72554 502.65879 877.378122 534.80179 886.767793 553.37279 790.523662 598.37279 776.439155 602.30139 767.384883 616.23039 774.427136 625.51609 770.403005 637.30209 752.335399 637.98048 743.003286 626.31748 750.953333 572.30248 742.234366 554.44548 760.343286 543.73148 765.038122 498.01748"></polygon>
                <polygon id="valencia" fill="#FFFFFF" points="742.569953 625.87 751.959624 638.013 720.437559 698.013 718.425446 717.299 724.796995 744.799 746.594178 762.299 717.08338 781.942 698.304038 824.085 684.889953 814.085 683.883944 749.799 668.793803 736.942 674.830047 726.942 658.062911 720.1563 658.733606 698.3703 676.507315 681.2273 684.220272 687.6559 712.054075 658.7269 712.054075 630.5129 729.491634 631.5843"></polygon>
                <polygon id="murcia" fill="#FFFFFF" points="615.142723 812.66 643.98216 787.66 653.707042 794.0886 665.444131 765.8746 683.553052 765.8746 686.235775 813.7316 698.978498 824.8026 698.643155 844.4456 666.449728 845.8742 655.718272 860.8742 640.963343 844.0882 636.268507 824.4452 615.812169 824.4452"></polygon>
                <polygon id="extremadura" fill="#FFFFFF" points="376.37277 664.09 389.115493 649.09 423.991549 638.733 435.728638 651.233 465.239437 655.8758 466.245446 667.3048 484.689577 711.5908 501.791925 717.6622 481.335587 761.9482 449.813521 779.4482 449.813521 803.0192 440.088638 799.4478 426.674554 809.8048 376.036995 797.3048 360.610704 768.3758 377.37784 750.1618 354.238873 694.8048 380.395681 691.5905"></polygon>
                <polygon id="andalucia" fill="#FFFFFF" points="376.034742 798.02 347.530516 843.734 352.896056 866.591 377.040657 861.591 406.886667 886.948 405.545258 915.877 439.750892 948.02 453.835399 947.30571 474.96216 918.01971 493.406291 917.66257 507.490798 900.87657 594.345258 905.87657 603.399624 893.73357 619.831549 893.73357 627.209108 913.73357 654.372488 860.51957 642.97061 846.23357 635.928357 824.09057 617.484225 823.37628 614.466103 812.30528 601.052019 807.66248 607.423568 787.30548 601.052019 781.23408 521.575023 788.01978 480.663286 762.66278 449.476432 778.37678 450.81784 804.44778 439.415962 798.37638 425.666667 810.16238"></polygon>
                <polygon id="castilla_mancha" fill="#FFFFFF" points="466.307042 667.15 503.473239 656.584 549.300469 670.408 538.267606 689.484 549.970892 690.8259 561.29108 674.7549 580.20939 676.2268 580.283756 663.6838 561.72507 621.9598 567.564883 607.2378 560.0077 596.7328 588.078122 586.8374 613.50723 605.0954 632.564507 599.5903 650.355117 612.8043 645.186009 655.8273 676.020751 681.8373 658.640469 698.6843 658.067991 719.7993 674.77785 727.1947 668.978789 737.1947 683.669869 750.0517 683.808779 765.6177 665.543991 765.7044 653.569343 794.4234 644.457512 787.6123 615.536385 812.2553 601.05939 807.9696 606.875352 787.6556 600.54446 781.5662 519.905962 787.6556 481.005493 762.6556 501.976385 717.1936 484.514413 711.5839"></polygon>
                <path d="M794.109859,660.7 L795.776808,666.3357 L805.222817,666.96189 L808.278967,661.63929 L803.278028,655.69049 L794.109859,660.7 Z M801.889014,676.668 L798.555117,682.3037 L805.500845,685.7478 L810.501784,681.6776 L801.889014,676.668 Z M872.458028,606.222 L875.514085,617.493 L883.293333,614.6751 L889.961221,623.1287 L893.572958,616.8668 L888.572019,605.9088 L872.458028,606.222 Z" id="baleares"></path>
                <path d="M12.8685446,894.86 L22.258216,883.36 L34.4647887,888.86 L33.056338,900.36 L27.4225352,915.36 L12.8685446,894.86 Z M52.3051643,939.36 L59.8169014,928.86 L67.7981221,937.86 L65.4507042,948.36 L52.7746479,946.36 L52.3051643,939.36 Z M76.2488263,919.86 L89.3943662,946.86 L105.826291,938.36 L106.765258,929.86 L110.051643,919.86 L127.422535,912.36 L121.788732,903.36 L103.00939,910.36 L98.314554,918.86 L76.2488263,919.86 Z M134.934272,957.36 L135.873239,948.36 L146.201878,935.86 L156.061033,935.86 L165.920188,945.36 L164.981221,954.86 L155.591549,970.86 L134.934272,957.36 Z M209.58216,941.36 L229.769953,927.86 L242.446009,894.36 L250.42723,894.86 L255.591549,909.36 L251.835681,935.36 L236.342723,936.36 L226.483568,948.86 L212.868545,949.36 L209.58216,941.36 Z M257.469484,882.36 L266.389671,873.36 L283.760563,863.36 L284.230047,879.86 L265.450704,891.36 L257.469484,882.36 Z M15.685446,952.36 L23.1971831,962.36 L12.8685446,971.86 L1.1314554,965.86 L0.661971831,956.36 L9.58215962,958.36 L15.685446,952.36 Z" id="canarias" fill="#FFFFFF"></path>
                <polygon id="Path" fill="#D2EEF6" points="826.893096 632.699257 831.36492 644.09429 843.11595 633.593934 844.283871 644.77818 856.23476 653.418919 872.716805 627.143827 859.340367 624.155324 852.268826 611.623598"></polygon>
                <polygon id="Path" fill="#D2EEF6" points="135.521103 956.702418 136.055878 948.592001 146.638367 935.289224 157.47109 935.902701 165.738911 944.840505 165.817614 954.13348 155.75981 970.576294"></polygon>
                <polyline id="divider" points="2.31794914 848.830581 295.378221 848.830581 333.272911 896.230763 333.272911 964.780512 333.272911 1093.27466"></polyline>
            </g>
            <g id="america" transform="translate(10.000000, -10.000000)">
                <path d="M63.1311037,276.812114 C53.4233118,276.812114 33.5261997,292.931838 33.5261997,292.931838 L17.8492741,319.070212 L22.6191298,343.202133 L11.1805617,373.053809 L0.986698741,387.516619 L0.986698741,422.531676 L26.0852249,463.879894 L52.2240338,502.719757 L97.0879331,522.080675 L109.707608,561.655936 L110.220936,636.126244 L106.482277,702.484486 L119.637994,770.467865 L143.81889,819.40809 L164.505971,821.715973 L178.296058,816.61803 L180.769372,810.479917 L161.502433,803.793744 L157.546989,780.191449 L171.16152,756.082226 L156.652073,742.005272 L169.417116,731.632541 L172.410768,713.547219 L182.831767,703.987057 L180.769372,684.989297 L211.941514,674.657422 L213.695004,648.214902 L235.295636,647.928914 L273.604391,588.924643 L272.96841,564.061865 L310.295938,544.042721 L324.005866,548.954447 L352.416034,462.572521 L382.870427,423.632789 L372.28589,399.777778 L274.908152,361.323771 L260.789379,373.893614 L239.325028,369.245178 L250.200299,349.784391 L216.397922,311.148805 L193.670696,319.397056 L134.683481,283.317201 L92.2317658,288.328797 C92.2317658,288.328797 85.0972923,284.091906 77.3168335,280.757818 C75.5890596,280.017431 70.1618341,283.912265 68.441403,283.317201 C65.1361461,282.173978 65.6431638,276.812114 63.1311037,276.812114 Z" id="sudamerica" stroke="#000000" stroke-width="3" fill="#FFFFFF"></path>
                <g id="lines" transform="translate(1.188275, 0.131192)" stroke-width="3" stroke="#000000">
                    <polyline id="Path-3" points="66.2960471 284.152671 48.9853262 301.69173 58.8797562 318.340639 75.3488937 317.978368 99.5605975 322.553325 102.807814 355.323263 84.792753 359.5463 87.9745852 405.275165 76.392457 395.341195 62.2201945 398.816403 38.6040727 380.335441 8.9078354 374.461487"></polyline>
                    <polyline id="Path-4" points="103.201416 355.092963 115.102699 362.633361 137.641594 349.283699 126.146861 334.922269 157.616897 329.265677 157.616897 322.81209 152.34988 316.85533 159.70235 299.968417"></polyline>
                    <polyline id="Path-5" points="157.598123 324.565219 166.28132 331.095142 164.681017 343.823768 173.65618 353.716336 193.678093 345.422933 186.197065 335.869347 181.142387 329.941052 187.054185 314.963762"></polyline>
                    <polyline id="Path-6" points="193.627598 345.579485 211.602523 341.994303 213.560175 330.80015 215.188962 312.461509"></polyline>
                    <polyline id="Path-7" points="211.620649 342.30482 228.659474 342.30482 232.326835 329.057371"></polyline>
                    <polyline id="Path-8" points="88.8504791 407.114981 64.8588818 418.865477 60.213342 435.020146 70.8224704 457.009955 89.3139973 453.539922 92.5560351 462.402607 107.059752 476.867543 108.595318 509.373542 98.2684435 525.388478"></polyline>
                    <polyline id="Path-9" points="97.5874084 467.026729 130.893391 448.258539 135.787521 467.026729 173.793422 480.64033 178.293951 496.414615 194.620667 498.412277 198.321044 525.934471 168.899292 526.915188 164.207141 547.05483 152.261838 548.087301 149.796646 555.989969 145.503276 549.293144 134.655915 549.924529 127.234445 557.840135 104.708498 515.070243"></polyline>
                    <polyline id="Path-10" points="127.965976 557.33231 125.988902 567.95524 121.094772 575.925187 126.216777 593.389205 118.039177 617.46983 115.465227 634.920909 124.494768 647.054377 120.393021 674.749943 124.442978 689.670305 122.016629 709.99367 126.082124 731.126968 133.151423 741.769953 130.282272 770.764517 126.897812 789.687965"></polyline>
                    <polyline id="Path-11" points="163.026335 547.060653 202.72835 571.792718 197.427671 586.36116 217.384847 588.521844 226.347062 573.958577 227.584837 557.43905 220.292841 557.74698 213.342658 544.381793 199.271385 543.760758 197.427671 526.025038"></polyline>
                    <polyline id="Path-12" points="227.373793 570.498896 232.600673 573.83437 232.533346 584.153899 208.63497 606.832021 202.478465 629.863357 201.434902 645.422867 212.933519 653.025368"></polyline>
                    <polyline id="Path-13" points="208.589654 609.833689 234.018756 625.794589 240.991412 635.597324"></polyline>
                    <polyline id="Path-14" points="39.2449708 381.000466 35.609331 399.005301 19.3046258 410.738978 14.9957194 425.918104 0.191622041 421.132255"></polyline>
                    <path d="M589.311725,1.36880811 L189.147662,908.376621" id="divider"></path>
                </g>
                <polygon id="Path-15" fill="#D2EEF6" points="24.1464844 343.489258 12.6137695 373.657227 40.7255859 379.159668 46.9726562 363.089844 37.4863281 357.746094"></polygon>
            </g>
            <polygon id="Path-2" fill="#D2EEF6" points="971.378156 608.123741 988.376953 609.103516 994.625 603.240234 1009.53171 596.66161 1002.99393 568.54223 1004.79574 548.792256 974.882003 535.907553 970.408522 540.670848 962.509029 534.375267 946.107644 550.151068 945.590948 570.027344 963.055121 577.135206 956.910656 587.885638 971.378156 600.323199"></polygon>
        </g>
    </g>
</svg>