<?xml version="1.0" encoding="utf-8"?>
<!DOCTYPE svg PUBLIC "-//W3C//DTD SVG 1.1//EN" "http://www.w3.org/Graphics/SVG/1.1/DTD/svg11.dtd">
<svg version="1.1" id="Capa_1" xmlns="http://www.w3.org/2000/svg" xmlns:xlink="http://www.w3.org/1999/xlink" x="0px" y="0px"
	 width="1200px" height="900px" viewBox="0 0 1200 900" enable-background="new 0 0 1200 900" xml:space="preserve">
<title>Mapa de CONSUL</title>
<desc>Lugares que utilizan este software libre para participación ciudadana.</desc>
<g id="Page-1">
	<g id="Mapa">
		<g id="spain" transform="translate(286.000000, -149.000000)">
			<polygon id="france" fill="#FFFFFF" stroke="#000000" stroke-width="3" points="646.145,450.152 664.383,436.668 686.41,279.152
				661.86,268.226 646.438,234.808 633.653,199.316 563.168,175.629 550,129.054 620.125,120.949 644.535,140.554 687.727,141.219
				668.899,71.539 703.512,78.605 703.125,95.429 756.063,97.32 744.008,83.726 785.852,67.066 806.215,51.926 807.989,2.75
				845.289,0 948.949,92.433 980.239,85.433 1001.981,104.469 1060.918,117.738 1036.762,210.019 1016.508,206.773 995.137,252.64
				988.571,271.636 1019.653,269.816 1022.434,298.836 1008.746,307.406 1030.461,334.929 1008.059,348.969 1026.246,368.636
				1019.934,395.472 1057.543,401.433 1051.114,427.39 996.992,472.871 937.965,454.187 902.5,453.273 863.711,468.504
				879.289,502.051 690.817,558.933 647.824,485.988 			"/>
			<polygon id="galicia" fill="#FFFFFF" stroke="#000000" stroke-width="3" points="391.367,425.06 363.862,410.413 333.035,420.01
				338.727,430.111 316.91,440.719 283.713,440.719 285.136,470.518 302.209,473.549 293.673,485.166 309.797,492.237
				301.261,500.318 308.849,505.369 302.209,519.007 303.158,534.158 323.076,523.047 335.406,530.117 328.293,541.734
				374.295,550.826 376.192,539.209 392.317,540.219 392.791,518.501 405.121,514.461 390.895,492.237 404.173,471.024 			"/>
			<polygon id="asturias" fill="#FFFFFF" stroke="#000000" stroke-width="3" points="391.584,424.91 440.685,424.048
				451.593,415.462 460.13,427.079 515.449,437.358 497.456,456.224 458.817,460.24 457.509,465.551 443.474,469.862
				441.103,461.01 404.054,470.663 			"/>
			<polygon id="cantabria" fill="#FFFFFF" stroke="#000000" stroke-width="3" points="497.123,456.341 515.535,437.418
				560.676,431.12 574.681,442.584 569.885,455.221 563.911,461.277 540.592,465.136 546.949,476.843 546.783,485.105
				529.512,485.697 518.886,466.624 500.275,465.257 			"/>
			<polygon id="castilla_leon" fill="#FFFFFF" stroke="#000000" stroke-width="3" points="391.837,518.5 391.837,539.714
				407.489,539.714 426.932,572.038 390.889,606.384 388.518,648.809 425.035,638.707 434.046,651.334 465.346,655.88
				465.346,668.002 505.657,655.375 543.597,601.837 588.651,587.19 613.312,605.373 631.333,599.817 625.642,581.129
				634.179,582.644 637.973,545.773 612.837,531.127 603.352,542.238 597.661,532.136 586.753,543.248 578.216,528.096
				582.485,491.225 571.576,477.084 585.329,476.578 582.01,465.971 570.154,455.364 563.989,461.426 540.276,464.961
				546.915,476.578 546.915,485.164 529.367,485.669 518.934,466.476 500.439,465.466 497.118,456.375 459.179,459.91
				457.281,465.466 443.529,469.507 441.157,460.92 405.588,470.011 389.463,492.234 404.639,513.953 			"/>
			<polygon id="madrid" fill="#FFFFFF" stroke="#000000" stroke-width="3" points="506.608,656.89 542.651,603.352 559.724,596.281
				567.312,606.888 561.62,622.04 580.591,663.456 579.642,676.588 561.147,674.568 549.764,690.73 538.382,689.215 549.29,670.021
							"/>
			<polygon id="pais_vasco" fill="#FFFFFF" stroke="#000000" stroke-width="3" points="570.156,454.36 574.899,442.743
				591.498,435.672 610.943,450.824 642.242,444.258 651.253,455.875 639.397,462.441 637.975,471.533 619.004,487.694
				616.633,504.363 584.384,493.756 570.631,476.583 583.436,476.078 582.962,470.016 			"/>
			<polygon id="rioja" fill="#FFFFFF" stroke="#000000" stroke-width="3" points="581.537,492.24 616.157,504.362 648.406,527.091
				637.455,545.754 611.889,533.151 603.826,543.254 596.239,531.132 586.753,542.748 577.742,528.101 			"/>
			<polygon id="navarra" fill="#FFFFFF" stroke="#000000" stroke-width="3" points="650.682,455.87 637.268,463.37 635.927,474.085
				618.154,488.37 616.141,504.441 646.657,525.512 640.286,541.584 654.37,548.369 669.125,539.798 665.437,523.369
				664.431,513.725 671.138,495.869 681.869,495.154 690.588,485.511 686.899,476.583 658.06,474.44 657.725,464.083 			"/>
			<polygon id="aragon" fill="#FFFFFF" stroke="#000000" stroke-width="3" points="654.372,548.1 669.127,540.156 663.901,516.08
				671.14,496.227 681.871,495.513 691.261,485.513 694.614,493.727 764.921,498.265 760.677,543.371 742.568,553.728
				747.859,565.427 751.286,573.728 743.018,625.556 730.16,630.871 712.386,631.227 712.051,658.371 683.939,688.205
				644.982,655.871 650.625,612.404 631.625,598.727 626.201,581.585 633.579,583.727 637.106,557.447 638.02,545.599
				640.957,541.506 			"/>
			<polygon id="cataluna" fill="#FFFFFF" stroke="#000000" stroke-width="3" points="764.814,497.98 774.16,494.756
				783.481,495.516 792.535,499.445 804.164,501.504 811.651,507.659 842.837,511.23 879.725,502.659 877.378,534.802
				886.768,553.373 790.524,598.373 776.439,602.302 767.385,616.23 774.427,625.516 770.403,637.302 752.335,637.98
				743.003,626.318 750.953,572.302 742.235,554.446 760.343,543.732 765.037,498.017 			"/>
			<polygon id="valencia" fill="#FFFFFF" stroke="#000000" stroke-width="3" points="742.57,625.87 751.959,638.013
				720.438,698.013 718.425,717.3 724.797,744.8 746.594,762.3 717.083,781.942 698.304,824.086 684.89,814.086 683.884,749.8
				668.793,736.942 674.829,726.942 658.063,720.157 658.734,698.371 676.507,681.227 684.22,687.656 712.054,658.727
				712.054,630.513 729.491,631.585 			"/>
			<polygon id="murcia" fill="#FFFFFF" stroke="#000000" stroke-width="3" points="615.143,812.66 643.982,787.66 653.707,794.089
				665.444,765.875 683.553,765.875 686.236,813.732 698.979,824.802 698.643,844.446 666.449,845.875 655.718,860.875
				640.963,844.089 636.268,824.445 615.812,824.445 			"/>
			<polygon id="extremadura" fill="#FFFFFF" stroke="#000000" stroke-width="3" points="376.372,664.091 389.115,649.091
				423.991,638.733 435.729,651.233 465.24,655.876 466.245,667.305 484.69,711.592 501.791,717.663 481.335,761.948
				449.813,779.448 449.813,803.019 440.088,799.448 426.674,809.805 376.036,797.305 360.611,768.376 377.377,750.162
				354.239,694.805 380.396,691.591 			"/>
			<polygon id="andalucia" fill="#FFFFFF" stroke="#000000" stroke-width="3" points="376.034,798.02 347.531,843.734
				352.896,866.592 377.04,861.592 406.886,886.948 405.545,915.878 439.75,948.02 453.835,947.306 474.962,918.02 493.406,917.663
				507.49,900.877 594.345,905.877 603.4,893.734 619.831,893.734 627.209,913.734 654.372,860.52 642.97,846.234 635.928,824.091
				617.484,823.377 614.466,812.305 601.052,807.663 607.423,787.305 601.052,781.234 521.574,788.02 480.663,762.663
				449.476,778.377 450.818,804.448 439.415,798.377 425.666,810.163 			"/>
			<polygon id="castilla_mancha" fill="#FFFFFF" stroke="#000000" stroke-width="3" points="466.307,667.15 503.473,656.584
				549.3,670.408 538.268,689.484 549.971,690.826 561.291,674.756 580.209,676.227 580.283,663.684 561.725,621.96
				567.565,607.238 560.007,596.733 588.078,586.838 613.507,605.095 632.565,599.591 650.355,612.804 645.186,655.828
				676.021,681.838 658.64,698.684 658.068,719.8 674.778,727.195 668.979,737.195 683.669,750.052 683.809,765.618
				665.544,765.705 653.569,794.424 644.457,787.613 615.536,812.256 601.059,807.969 606.875,787.656 600.544,781.566
				519.906,787.656 481.005,762.656 501.976,717.194 484.514,711.584 			"/>
			<path id="baleares" fill="none" stroke="#000000" stroke-width="3" d="M794.11,660.7l1.667,5.636l9.446,0.627l3.056-5.323
				l-5.001-5.948L794.11,660.7z M801.889,676.669l-3.334,5.636l6.945,3.443l5.001-4.07L801.889,676.669z M872.457,606.222
				l3.057,11.271l7.779-2.817l6.668,8.453l3.611-6.262l-5.001-10.958L872.457,606.222z"/>
			<path id="canarias" fill="#FFFFFF" stroke="#000000" stroke-width="3" d="M12.868,894.86l9.39-11.5l12.207,5.5l-1.409,11.5
				l-5.634,15L12.868,894.86z M52.305,939.36l7.512-10.5l7.981,9l-2.348,10.5l-12.676-2L52.305,939.36z M76.249,919.86l13.146,27
				l16.432-8.5l0.938-8.5l3.287-10l17.37-7.5l-5.634-9l-18.779,7l-4.694,8.5L76.249,919.86z M134.934,957.36l0.939-9l10.328-12.5
				h9.859l9.859,9.5l-0.939,9.5l-9.39,16L134.934,957.36z M209.582,941.36l20.188-13.5l12.676-33.5l7.981,0.5l5.164,14.5l-3.756,26
				l-15.493,1l-9.858,12.5l-13.615,0.5L209.582,941.36z M257.469,882.36l8.92-9l17.371-10l0.47,16.5l-18.779,11.5L257.469,882.36z
				 M15.686,952.36l7.512,10l-10.329,9.5l-11.737-6l-0.469-9.5l8.92,2L15.686,952.36z"/>
			<polygon id="Path" fill="#D2EEF6" stroke="#000000" stroke-width="3" points="826.893,632.7 831.365,644.094 843.115,633.594
				844.283,644.778 856.235,653.42 872.717,627.144 859.34,624.156 852.269,611.624 			"/>
			<polygon id="Path_1_" fill="#D2EEF6" stroke="#000000" stroke-width="3" points="135.521,956.703 136.056,948.593
				146.638,935.29 157.471,935.903 165.739,944.841 165.818,954.134 155.76,970.577 			"/>
			<polyline id="divider" fill="none" stroke="#000000" stroke-width="3" points="2.318,848.831 295.378,848.831 333.273,896.231
				333.273,964.781 333.273,1093.275 			"/>
		</g>
		<g id="america" transform="translate(10.000000, -10.000000)">
			<path id="sudamerica" fill="#FFFFFF" stroke="#000000" stroke-width="3" d="M63.131,276.812
				c-9.708,0-29.604,16.119-29.604,16.119L17.849,319.07l4.771,24.132l-11.438,29.853L0.987,387.517v35.015l25.099,41.349
				l26.139,38.84l44.864,19.36l12.619,39.575l0.514,74.471l-3.738,66.358l13.155,67.983l24.181,48.939l20.688,2.309l13.79-5.099
				l2.474-6.138l-19.268-6.687l-3.955-23.602l13.614-24.109l-14.51-14.077l12.766-10.373l2.993-18.085l10.421-9.561l-2.062-18.997
				l31.172-10.332l1.753-26.442l21.601-0.286l38.31-59.005l-0.637-24.862l37.328-20.02l13.71,4.912l28.41-86.382l30.454-38.94
				l-10.585-23.854l-97.377-38.454l-14.119,12.57l-21.464-4.648l10.875-19.461l-33.803-38.636l-22.727,8.248l-58.987-36.08
				l-42.452,5.012c0,0-7.135-4.237-14.915-7.571c-1.728-0.74-7.155,3.154-8.875,2.56C65.136,282.174,65.643,276.812,63.131,276.812z
				"/>
			<g id="lines" transform="translate(1.188275, 0.131192)">
				<polyline id="Path-3" fill="none" stroke="#000000" stroke-width="3" points="66.296,284.153 48.986,301.692 58.879,318.341
					75.349,317.979 99.561,322.553 102.808,355.324 84.792,359.546 87.975,405.276 76.392,395.341 62.22,398.817 38.604,380.335
					8.908,374.461 				"/>
				<polyline id="Path-4" fill="none" stroke="#000000" stroke-width="3" points="103.202,355.093 115.103,362.633 137.642,349.284
					126.147,334.922 157.617,329.266 157.617,322.812 152.35,316.856 159.703,299.968 				"/>
				<polyline id="Path-5" fill="none" stroke="#000000" stroke-width="3" points="157.598,324.566 166.282,331.095 164.681,343.824
					173.656,353.716 193.678,345.423 186.197,335.87 181.142,329.941 187.054,314.964 				"/>
				<polyline id="Path-6" fill="none" stroke="#000000" stroke-width="3" points="193.627,345.58 211.603,341.995 213.56,330.8
					215.189,312.461 				"/>
				<polyline id="Path-7" fill="none" stroke="#000000" stroke-width="3" points="211.621,342.305 228.66,342.305 232.327,329.058
									"/>
				<polyline id="Path-8" fill="none" stroke="#000000" stroke-width="3" points="88.85,407.116 64.859,418.866 60.213,435.02
					70.823,457.01 89.314,453.54 92.556,462.403 107.06,476.868 108.595,509.373 98.268,525.389 				"/>
				<polyline id="Path-9" fill="none" stroke="#000000" stroke-width="3" points="97.587,467.027 130.893,448.259 135.788,467.027
					173.793,480.64 178.294,496.414 194.621,498.413 198.321,525.935 168.899,526.915 164.207,547.055 152.262,548.087
					149.796,555.991 145.503,549.293 134.656,549.925 127.235,557.84 104.708,515.071 				"/>
				<polyline id="Path-10" fill="none" stroke="#000000" stroke-width="3" points="127.966,557.332 125.989,567.956
					121.095,575.925 126.217,593.389 118.04,617.47 115.465,634.921 124.495,647.054 120.393,674.75 124.443,689.67
					122.017,709.994 126.082,731.127 133.152,741.77 130.283,770.765 126.898,789.688 				"/>
				<polyline id="Path-11" fill="none" stroke="#000000" stroke-width="3" points="163.027,547.061 202.728,571.793
					197.427,586.362 217.385,588.522 226.347,573.958 227.584,557.439 220.292,557.747 213.342,544.382 199.271,543.761
					197.427,526.025 				"/>
				<polyline id="Path-12" fill="none" stroke="#000000" stroke-width="3" points="227.373,570.499 232.601,573.834
					232.534,584.154 208.635,606.832 202.478,629.864 201.435,645.423 212.933,653.026 				"/>
				<polyline id="Path-13" fill="none" stroke="#000000" stroke-width="3" points="208.589,609.833 234.019,625.794
					240.992,635.597 				"/>
				<polyline id="Path-14" fill="none" stroke="#000000" stroke-width="3" points="39.245,381 35.609,399.005 19.304,410.74
					14.996,425.918 0.192,421.132 				"/>
				<path id="divider_1_" fill="none" stroke="#000000" stroke-width="3" d="M589.312,1.369L189.148,908.376"/>
			</g>
			<polygon id="Path-15" fill="#D2EEF6" points="24.147,343.49 12.614,373.658 40.726,379.16 46.973,363.09 37.487,357.746 			"/>
			<polygon id="Path-15_1_" fill="#D2EEF6" points="30.259,438.191 25.732,444.318 13.614,439.928 20.002,450.295 25.5,459
				27.78,454.791 29.07,448.755 32.728,447.988 37.85,448.755 34.009,444.135 			"/>
		</g>
		<polygon id="Path-2" fill="#D2EEF6" points="971.378,608.124 988.377,609.103 994.625,603.24 1009.531,596.662 1002.993,568.543
			1004.795,548.793 974.882,535.908 970.408,540.671 962.509,534.376 946.108,550.151 945.591,570.027 963.055,577.135
			956.91,587.885 971.378,600.323 		"/>
	</g>
</g>
</svg>
