<?xml version="1.0" encoding="UTF-8"?>
<svg width="1200px" height="600px" viewBox="0 0 1200 600" version="1.1" xmlns="http://www.w3.org/2000/svg" xmlns:xlink="http://www.w3.org/1999/xlink">
    <!-- Generator: Sketch 41.2 (35397) - http://www.bohemiancoding.com/sketch -->
    <title>Mapa</title>
    <desc>Created with Sketch.</desc>
    <defs></defs>
    <g id="Page-1" stroke="none" stroke-width="1" fill="none" fill-rule="evenodd">
        <g id="Mapa" stroke="#000000" stroke-width="3">
            <g id="spain" transform="translate(286.000000, 11.000000)">
                <g id="peninsula" transform="translate(283.433803, 0.190000)" fill="#FFFFFF">
                    <g id="Group">
                        <polygon id="path3352" points="107.934272 14.87 80.428169 0.223 49.6018779 9.8194 55.2928638 19.9214 33.4769014 30.5284 0.27971831 30.5284 1.70244131 60.3284 18.7756808 63.3588 10.2391549 74.9758 26.3640376 82.0469 17.8275117 90.1281 25.415493 95.1789 18.7759624 108.8159 19.724507 123.9679 39.6428169 112.8559 51.9733333 119.927 44.8596244 131.544 90.8615023 140.6354 92.7584977 129.0184 108.88338 130.0286 109.357634 108.3106 121.68815 104.27 107.46092 82.047 120.739793 60.834"></polygon>
                        <polygon id="path3354" points="108.150235 14.72 157.251643 13.85778 168.159624 5.27148 176.69615 16.88848 232.015399 27.16848 214.022911 46.03448 175.383474 50.04968 174.075775 55.36038 160.040094 59.67148 157.668826 50.81998 120.62 60.47248"></polygon>
                        <polygon id="path3356" points="213.690141 46.15 232.102347 27.228 277.242254 20.9299 291.246948 32.3939 286.451174 45.0309 280.478122 51.0868 257.158873 54.9462 263.515587 66.6522 263.350376 74.9146 246.078075 75.50634 235.452723 56.43334 216.841455 55.06604"></polygon>
                        <polygon id="path3358" points="108.403756 108.31 108.403756 130.028 124.05446 129.52293 143.498592 161.84793 107.455399 196.19293 105.084131 238.61893 141.601502 228.51693 150.612207 241.14393 181.912676 245.68963 181.912676 257.81163 222.223474 245.18463 260.16338 191.64663 305.216901 176.99963 329.877934 195.18263 347.899531 189.62683 342.208545 170.93883 350.74507 172.45403 354.539061 135.58303 329.40385 120.93603 319.918404 132.04803 314.227418 121.94603 303.319437 133.05803 294.782911 117.90603 299.051174 81.03503 288.143192 66.89303 301.896244 66.38795 298.576526 55.78095 286.720188 45.17395 280.55493 51.23485 256.842254 54.77035 263.481784 66.38735 263.481784 74.97365 245.934366 75.47873 235.500563 56.28573 217.004789 55.27553 213.68507 46.18413 175.745164 49.71963 173.848169 55.27543 160.095117 59.31603 157.72385 50.72973 122.154836 59.82113 106.029953 82.04413 121.20554 103.76213"></polygon>
                        <polygon id="path3360" points="223.173709 246.7 259.216901 193.162 276.290141 186.0909 283.878122 196.6979 278.187136 211.8499 297.157089 253.2659 296.208545 266.3979 277.71277 264.3776 266.33061 280.5396 254.948451 279.0244 265.856432 259.8314"></polygon>
                        <polygon id="path3362" points="286.723005 44.17 291.46554 32.553 308.064601 25.4819 327.508732 40.6339 358.809202 34.0679 367.819906 45.6849 355.963568 52.2509 354.540845 61.3423 335.570892 77.5043 333.199624 94.1723 300.950798 83.5653 287.197746 66.3923 300.002441 65.88723 299.528197 59.82633"></polygon>
                        <polygon id="path3364" points="298.103286 82.05 332.723944 94.172 364.97277 116.9 351.219718 134.073 328.455399 122.961 320.393146 133.063 312.805164 120.941 303.319718 132.558 294.309014 117.911"></polygon>
                        <polygon id="path3366" points="367.248826 45.68 353.834742 53.18 352.493333 63.894 334.719624 78.18 332.707606 94.251 363.224038 115.322 356.852488 131.393 370.936995 138.1787 385.691925 129.6073 382.003099 113.1783 380.997089 103.5354 387.704038 85.6784 398.435493 84.96412 407.15446 75.32122 403.465634 66.39262 374.626197 64.24972 374.290854 53.89272"></polygon>
                        <polygon id="path3368" points="370.938967 137.91 385.693897 129.9662 380.46723 105.8892 387.705915 86.0372 398.437371 85.32292 407.827042 75.32292 411.180469 83.53722 481.487512 88.07552 477.243099 133.18052 459.134178 143.53752 464.425352 155.23652 467.853146 163.53752 459.584601 215.36652 446.726385 220.68032 428.952676 221.03747 428.617324 248.18047 400.505587 278.01447 361.54784 245.68047 367.191221 202.21347 348.191221 188.53747 342.768122 171.39447 350.145681 173.53737 353.671784 147.25637 354.586582 135.40937 357.523296 131.31487"></polygon>
                        <polygon id="path3370" points="481.380282 87.79 490.726385 84.5652 500.047418 85.32589 509.101784 89.25449 520.730892 91.31379 528.21662 97.46879 559.403474 101.04019 596.291737 92.46879 593.944319 124.61179 603.333991 143.18279 507.089859 188.18279 493.005352 192.11139 483.95108 206.04039 490.993333 215.32609 486.969202 227.11209 468.901596 227.79048 459.569484 216.12748 467.519531 162.11248 458.800563 144.25548 476.909484 133.54148 481.604319 87.82748"></polygon>
                        <polygon id="path3372" points="459.13615 215.68 468.525822 227.823 437.003756 287.823 434.991643 307.109 441.363192 334.609 463.160376 352.109 433.649577 371.752 414.870235 413.895 401.45615 403.895 400.450141 339.609 385.36 326.752 391.396244 316.752 374.629108 309.9663 375.299803 288.1803 393.073512 271.0373 400.786469 277.4659 428.620272 248.5369 428.620272 220.3229 446.057831 221.3943"></polygon>
                        <polygon id="path3374" points="331.70892 402.47 360.548357 377.47 370.273239 383.8986 382.010329 355.6846 400.119249 355.6846 402.801972 403.5416 415.544695 414.6126 415.209352 434.2556 383.015925 435.6842 372.284469 450.6842 357.52954 433.8982 352.834704 414.2552 332.378366 414.2552"></polygon>
                        <polygon id="path3376" points="92.9389671 253.9 105.68169 238.9 140.557746 228.543 152.294836 241.043 181.805634 245.6858 182.811643 257.1148 201.255775 301.4008 218.358122 307.4722 197.901784 351.7582 166.379718 369.2582 166.379718 392.8292 156.654836 389.2578 143.240751 399.6148 92.6031925 387.1148 77.1769014 358.1858 93.9440376 339.9718 70.8050704 284.6148 96.9618779 281.4005"></polygon>
                        <polygon id="path3378" points="92.600939 387.83 64.0967136 433.544 69.4622535 456.401 93.6068545 451.401 123.452864 476.758 122.111455 505.687 156.317089 537.83 170.401596 537.11571 191.528357 507.82971 209.972488 507.47257 224.056995 490.68657 310.911455 495.68657 319.965822 483.54357 336.397746 483.54357 343.775305 503.54357 370.938685 450.32957 359.536808 436.04357 352.494554 413.90057 334.050423 413.18628 331.0323 402.11528 317.618216 397.47248 323.989765 377.11548 317.618216 371.04408 238.141221 377.82978 197.229484 352.47278 166.042629 368.18678 167.384038 394.25778 155.98216 388.18638 142.232864 399.97238"></polygon>
                        <polygon id="path3380" points="182.873239 256.96 220.039437 246.394 265.866667 260.218 254.833803 279.294 266.537089 280.6359 277.857277 264.5649 296.775587 266.0368 296.849953 253.4938 278.291268 211.7698 284.13108 197.0478 276.573897 186.5428 304.644319 176.6474 330.073427 194.9054 349.130704 189.4003 366.921315 202.6143 361.752207 245.6373 392.586948 271.6473 375.206667 288.4943 374.634188 309.6093 391.344047 317.0047 385.544986 327.0047 400.236066 339.8617 400.374977 355.4277 382.110188 355.5144 370.13554 384.2334 361.023709 377.4223 332.102582 402.0653 317.625587 397.7796 323.441549 377.4656 317.110657 371.3762 236.47216 377.4656 197.57169 352.4656 218.542582 307.0036 201.08061 301.3939"></polygon>
                    </g>
                </g>
                <path d="M794.109859,250.7 L795.776808,256.3357 L805.222817,256.96189 L808.278967,251.63929 L803.278028,245.69049 L794.109859,250.7 Z M801.889014,266.668 L798.555117,272.3037 L805.500845,275.7478 L810.501784,271.6776 L801.889014,266.668 Z M827.171643,222.835 L832.728263,233.793 L841.89662,224.7132 L843.563662,235.3582 L855.788075,242.8725 L871.624695,217.1985 L859.400282,214.3806 L851.898873,202.1696 L827.171643,222.835 Z M872.458028,196.222 L875.514085,207.493 L883.293333,204.6751 L889.961221,213.1287 L893.572958,206.8668 L888.572019,195.9088 L872.458028,196.222 Z" id="baleares" fill="#FFFFFF"></path>
                <path d="M12.8685446,484.86 L22.258216,473.36 L34.4647887,478.86 L33.056338,490.36 L27.4225352,505.36 L12.8685446,484.86 Z M52.3051643,529.36 L59.8169014,518.86 L67.7981221,527.86 L65.4507042,538.36 L52.7746479,536.36 L52.3051643,529.36 Z M76.2488263,509.86 L89.3943662,536.86 L105.826291,528.36 L106.765258,519.86 L110.051643,509.86 L127.422535,502.36 L121.788732,493.36 L103.00939,500.36 L98.314554,508.86 L76.2488263,509.86 Z M134.934272,547.36 L135.873239,538.36 L146.201878,525.86 L156.061033,525.86 L165.920188,535.36 L164.981221,544.86 L155.591549,560.86 L134.934272,547.36 Z M209.58216,531.36 L229.769953,517.86 L242.446009,484.36 L250.42723,484.86 L255.591549,499.36 L251.835681,525.36 L236.342723,526.36 L226.483568,538.86 L212.868545,539.36 L209.58216,531.36 Z M257.469484,472.36 L266.389671,463.36 L283.760563,453.36 L284.230047,469.86 L265.450704,481.36 L257.469484,472.36 Z M15.685446,542.36 L23.1971831,552.36 L12.8685446,561.86 L1.1314554,555.86 L0.661971831,546.36 L9.58215962,548.36 L15.685446,542.36 Z" id="canarias" fill="#FFFFFF"></path>
                <polyline id="divider" points="2.31794914 438.830581 295.378221 438.830581 333.272911 486.230763 333.272911 554.780512"></polyline>
            </g>
            <path d="M70.7204838,13.475644 C63.3983653,13.475644 48.3909346,25.6426271 48.3909346,25.6426271 L36.5665869,45.3715736 L40.1642586,63.5860717 L31.5366991,86.1177758 L23.8479607,97.0341397 L23.8479607,123.463104 L42.7785667,154.672267 L62.4938078,183.988152 L96.3324802,198.601552 L105.850892,228.472507 L106.23807,284.681844 L103.41818,334.768288 L113.340902,386.081366 L131.579384,423.020888 L147.18265,424.762852 L157.583846,420.914983 L159.449348,416.282005 L144.917226,411.235358 L141.933826,393.420616 L152.202609,375.22325 L141.258834,364.598126 L150.886889,356.768907 L153.144856,343.118312 L161.004912,335.902411 L159.449348,321.563119 L182.960989,313.764737 L184.283562,293.806225 L200.575875,293.590365 L229.470319,249.054615 L228.990629,230.288474 L257.14498,215.178253 L267.485717,218.885568 L288.914135,153.685477 L311.884412,124.294212 L303.901007,106.288722 L230.453682,77.2640769 L219.804574,86.7516513 L203.615051,83.2430647 L211.817743,68.554285 L186.322242,39.3925859 L169.180193,45.6182711 L124.688986,18.3856093 L92.6697077,22.1683042 C92.6697077,22.1683042 87.2885189,18.9703477 81.4200946,16.4538161 C80.1169183,15.8949805 76.0234242,18.8347562 74.7257861,18.3856093 C72.2327904,17.5227175 72.6152094,13.475644 70.7204838,13.475644 Z" id="america" fill="#FFFFFF"></path>
        </g>
    </g>
</svg>