<?xml version="1.0" encoding="UTF-8"?>
<svg width="1200px" height="800px" viewBox="0 0 1200 800" version="1.1" xmlns="http://www.w3.org/2000/svg" xmlns:xlink="http://www.w3.org/1999/xlink">
    <!-- Generator: Sketch 41.2 (35397) - http://www.bohemiancoding.com/sketch -->
    <title>Mapa</title>
    <desc>Created with Sketch.</desc>
    <defs></defs>
    <g id="Page-1" stroke="none" stroke-width="1" fill="none" fill-rule="evenodd">
        <g id="Mapa" stroke-width="3" stroke="#000000">
            <g id="spain" transform="translate(286.000000, 161.000000)">
                <polygon id="galicia" fill="#FFFFFF" points="391.368075 15.06 363.861972 0.413 333.035681 10.0094 338.726667 20.1114 316.910704 30.7184 283.713521 30.7184 285.136244 60.5184 302.209484 63.5488 293.672958 75.1658 309.79784 82.2369 301.261315 90.3181 308.849296 95.3689 302.209765 109.0059 303.15831 124.1579 323.07662 113.0459 335.407136 120.117 328.293427 131.734 374.295305 140.8254 376.1923 129.2084 392.317183 130.2186 392.791437 108.5006 405.121953 104.46 390.894723 82.237 404.173596 61.024"></polygon>
                <polygon id="asturias" fill="#FFFFFF" points="391.584038 14.91 440.685446 14.04778 451.593427 5.46148 460.129953 17.07848 515.449202 27.35848 497.456714 46.22448 458.817277 50.23968 457.509577 55.55038 443.473897 59.86148 441.102629 51.00998 404.053803 60.66248"></polygon>
                <polygon id="cantabria" fill="#FFFFFF" points="497.123944 46.34 515.53615 27.418 560.676056 21.1199 574.680751 32.5839 569.884977 45.2209 563.911925 51.2768 540.592676 55.1362 546.94939 66.8422 546.784178 75.1046 529.511878 75.69634 518.886526 56.62334 500.275258 55.25604"></polygon>
                <polygon id="castilla_leon" fill="#FFFFFF" points="391.837559 108.5 391.837559 129.71293 407.488263 129.71293 426.932394 162.03793 390.889202 196.38293 388.517934 238.80893 425.035305 228.70693 434.046009 241.33393 465.346479 245.87963 465.346479 258.00163 505.657277 245.37463 543.597183 191.83663 588.650704 177.18963 613.311737 195.37263 631.333333 189.81683 625.642347 171.12883 634.178873 172.64403 637.972864 135.77303 612.837653 121.12603 603.352207 132.23803 597.661221 122.13603 586.753239 133.24803 578.216714 118.09603 582.484977 81.22503 571.576995 67.08303 585.330047 66.57795 582.010329 55.97095 570.153991 45.36395 563.988732 51.42485 540.276056 54.96035 546.915587 66.57735 546.915587 75.16365 529.368169 75.66873 518.934366 56.47573 500.438592 55.46553 497.118873 46.37413 459.178967 49.90963 457.281972 55.46543 443.52892 59.50603 441.157653 50.91973 405.588638 60.01113 389.463756 82.23413 404.639343 103.95213"></polygon>
                <polygon id="madrid" fill="#FFFFFF" points="506.607512 246.89 542.650704 193.352 559.723944 186.2809 567.311925 196.8879 561.620939 212.0399 580.590892 253.4559 579.642347 266.5879 561.146573 264.5676 549.764413 280.7296 538.382254 279.2144 549.290235 260.0214"></polygon>
                <polygon id="pais_vasco" fill="#FFFFFF" points="570.156808 44.36 574.899343 32.743 591.498404 25.6719 610.942535 40.8239 642.243005 34.2579 651.253709 45.8749 639.397371 52.4409 637.974648 61.5323 619.004695 77.6943 616.633427 94.3623 584.384601 83.7553 570.631549 66.5823 583.436244 66.07723 582.962 60.01633"></polygon>
                <polygon id="rioja" fill="#FFFFFF" points="581.537089 82.24 616.157746 94.362 648.406573 117.09 637.455078 135.753906 611.889202 123.151 603.826948 133.253 596.238967 121.131 586.753521 132.748 577.742817 118.101"></polygon>
                <polygon id="navarra" fill="#FFFFFF" points="650.682629 45.87 637.268545 53.37 635.927136 64.084 618.153427 78.37 616.141408 94.441 646.65784 115.512 640.286291 131.583 654.370798 138.3687 669.125728 129.7973 665.436901 113.3683 664.430892 103.7254 671.13784 85.8684 681.869296 85.15412 690.588263 75.51122 686.899437 66.58262 658.06 64.43972 657.724657 54.08272"></polygon>
                <polygon id="aragon" fill="#FFFFFF" points="654.37277 138.1 669.1277 130.1562 663.901033 106.0792 671.139718 86.2272 681.871174 85.51292 691.260845 75.51292 694.614272 83.72722 764.921315 88.26552 760.676901 133.37052 742.567981 143.72752 747.859155 155.42652 751.286948 163.72752 743.018404 215.55652 730.160188 220.87032 712.386479 221.22747 712.051127 248.37047 683.93939 278.20447 644.981643 245.87047 650.625023 202.40347 631.625023 188.72747 626.201925 171.58447 633.579484 173.72737 637.105587 147.44637 638.020385 135.59937 640.957099 131.50487"></polygon>
                <polygon id="cataluna" fill="#FFFFFF" points="764.814085 87.98 774.160188 84.7552 783.481221 85.51589 792.535587 89.44449 804.164695 91.50379 811.650423 97.65879 842.837277 101.23019 879.72554 92.65879 877.378122 124.80179 886.767793 143.37279 790.523662 188.37279 776.439155 192.30139 767.384883 206.23039 774.427136 215.51609 770.403005 227.30209 752.335399 227.98048 743.003286 216.31748 750.953333 162.30248 742.234366 144.44548 760.343286 133.73148 765.038122 88.01748"></polygon>
                <polygon id="valencia" fill="#D2EEF6" points="742.569953 215.87 751.959624 228.013 720.437559 288.013 718.425446 307.299 724.796995 334.799 746.594178 352.299 717.08338 371.942 698.304038 414.085 684.889953 404.085 683.883944 339.799 668.793803 326.942 674.830047 316.942 658.062911 310.1563 658.733606 288.3703 676.507315 271.2273 684.220272 277.6559 712.054075 248.7269 712.054075 220.5129 729.491634 221.5843"></polygon>
                <polygon id="murcia" fill="#FFFFFF" points="615.142723 402.66 643.98216 377.66 653.707042 384.0886 665.444131 355.8746 683.553052 355.8746 686.235775 403.7316 698.978498 414.8026 698.643155 434.4456 666.449728 435.8742 655.718272 450.8742 640.963343 434.0882 636.268507 414.4452 615.812169 414.4452"></polygon>
                <polygon id="extremadura" fill="#FFFFFF" points="376.37277 254.09 389.115493 239.09 423.991549 228.733 435.728638 241.233 465.239437 245.8758 466.245446 257.3048 484.689577 301.5908 501.791925 307.6622 481.335587 351.9482 449.813521 369.4482 449.813521 393.0192 440.088638 389.4478 426.674554 399.8048 376.036995 387.3048 360.610704 358.3758 377.37784 340.1618 354.238873 284.8048 380.395681 281.5905"></polygon>
                <polygon id="andalucia" fill="#FFFFFF" points="376.034742 388.02 347.530516 433.734 352.896056 456.591 377.040657 451.591 406.886667 476.948 405.545258 505.877 439.750892 538.02 453.835399 537.30571 474.96216 508.01971 493.406291 507.66257 507.490798 490.87657 594.345258 495.87657 603.399624 483.73357 619.831549 483.73357 627.209108 503.73357 654.372488 450.51957 642.97061 436.23357 635.928357 414.09057 617.484225 413.37628 614.466103 402.30528 601.052019 397.66248 607.423568 377.30548 601.052019 371.23408 521.575023 378.01978 480.663286 352.66278 449.476432 368.37678 450.81784 394.44778 439.415962 388.37638 425.666667 400.16238"></polygon>
                <polygon id="castilla_mancha" fill="#FFFFFF" points="466.307042 257.15 503.473239 246.584 549.300469 260.408 538.267606 279.484 549.970892 280.8259 561.29108 264.7549 580.20939 266.2268 580.283756 253.6838 561.72507 211.9598 567.564883 197.2378 560.0077 186.7328 588.078122 176.8374 613.50723 195.0954 632.564507 189.5903 650.355117 202.8043 645.186009 245.8273 676.020751 271.8373 658.640469 288.6843 658.067991 309.7993 674.77785 317.1947 668.978789 327.1947 683.669869 340.0517 683.808779 355.6177 665.543991 355.7044 653.569343 384.4234 644.457512 377.6123 615.536385 402.2553 601.05939 397.9696 606.875352 377.6556 600.54446 371.5662 519.905962 377.6556 481.005493 352.6556 501.976385 307.1936 484.514413 301.5839"></polygon>
                <path d="M794.109859,250.7 L795.776808,256.3357 L805.222817,256.96189 L808.278967,251.63929 L803.278028,245.69049 L794.109859,250.7 Z M801.889014,266.668 L798.555117,272.3037 L805.500845,275.7478 L810.501784,271.6776 L801.889014,266.668 Z M827.171643,222.835 L832.728263,233.793 L841.89662,224.7132 L843.563662,235.3582 L855.788075,242.8725 L871.624695,217.1985 L859.400282,214.3806 L851.898873,202.1696 L827.171643,222.835 Z M872.458028,196.222 L875.514085,207.493 L883.293333,204.6751 L889.961221,213.1287 L893.572958,206.8668 L888.572019,195.9088 L872.458028,196.222 Z" id="baleares" fill="#FFFFFF"></path>
                <path d="M12.8685446,484.86 L22.258216,473.36 L34.4647887,478.86 L33.056338,490.36 L27.4225352,505.36 L12.8685446,484.86 Z M52.3051643,529.36 L59.8169014,518.86 L67.7981221,527.86 L65.4507042,538.36 L52.7746479,536.36 L52.3051643,529.36 Z M76.2488263,509.86 L89.3943662,536.86 L105.826291,528.36 L106.765258,519.86 L110.051643,509.86 L127.422535,502.36 L121.788732,493.36 L103.00939,500.36 L98.314554,508.86 L76.2488263,509.86 Z M134.934272,547.36 L135.873239,538.36 L146.201878,525.86 L156.061033,525.86 L165.920188,535.36 L164.981221,544.86 L155.591549,560.86 L134.934272,547.36 Z M209.58216,531.36 L229.769953,517.86 L242.446009,484.36 L250.42723,484.86 L255.591549,499.36 L251.835681,525.36 L236.342723,526.36 L226.483568,538.86 L212.868545,539.36 L209.58216,531.36 Z M257.469484,472.36 L266.389671,463.36 L283.760563,453.36 L284.230047,469.86 L265.450704,481.36 L257.469484,472.36 Z M15.685446,542.36 L23.1971831,552.36 L12.8685446,561.86 L1.1314554,555.86 L0.661971831,546.36 L9.58215962,548.36 L15.685446,542.36 Z" id="canarias" fill="#D2EEF6"></path>
                <polyline id="divider" points="2.31794914 438.830581 295.378221 438.830581 333.272911 486.230763 333.272911 554.780512"></polyline>
            </g>
            <g id="america" transform="translate(-110.000000, -28.000000)">
                <path d="M183.131104,194.812114 C173.423312,194.812114 153.5262,210.931838 153.5262,210.931838 L137.849274,237.070212 L142.61913,261.202133 L131.180562,291.053809 L120.986699,305.516619 L120.986699,340.531676 L146.085225,381.879894 L172.224034,420.719757 L217.087933,440.080675 L229.707608,479.655936 L230.220936,554.126244 L226.482277,620.484486 L239.637994,688.467865 L263.81889,737.40809 L284.505971,739.715973 L298.296058,734.61803 L300.769372,728.479917 L281.502433,721.793744 L277.546989,698.191449 L291.16152,674.082226 L276.652073,660.005272 L289.417116,649.632541 L292.410768,631.547219 L302.831767,621.987057 L300.769372,602.989297 L331.941514,592.657422 L333.695004,566.214902 L355.295636,565.928914 L393.604391,506.924643 L392.96841,482.061865 L430.295938,462.042721 L444.005866,466.954447 L472.416034,380.572521 L502.870427,341.632789 L492.28589,317.777778 L394.908152,279.323771 L380.789379,291.893614 L359.325028,287.245178 L370.200299,267.784391 L336.397922,229.148805 L313.670696,237.397056 L254.683481,201.317201 L212.231766,206.328797 C212.231766,206.328797 205.097292,202.091906 197.316833,198.757818 C195.58906,198.017431 190.161834,201.912265 188.441403,201.317201 C185.136146,200.173978 185.643164,194.812114 183.131104,194.812114 Z" id="sudamerica" fill="#FFFFFF"></path>
                <polygon id="narino" fill-opacity="0.5" fill="#A6DDEE" points="188.287109 202.492188 184.560547 194.716797 176.46875 196.427734 155.078125 208.650391 139.087891 234.007812 138.324219 237.933594 142.203125 259.179688 130.658203 292.269531 160.019531 299.011719 181.703125 316.480469 198.310547 313.761719 209.191406 325.457031 205.814453 277.216797 224.1875 273.738281 220.673828 241.863281 198.984375 236.142578 181.298828 236.708984 171.328125 220.107422"></polygon>
                <g id="lines" transform="translate(0.188275, 0.131192)">
                    <polyline id="Path-3" points="187.296047 202.152671 169.985326 219.69173 179.879756 236.340639 196.348894 235.978368 220.560598 240.553325 223.807814 273.323263 205.792753 277.5463 208.974585 323.275165 197.392457 313.341195 183.220194 316.816403 159.604073 298.335441 129.907835 292.461487"></polyline>
                    <polyline id="Path-4" points="224.201416 273.092963 236.102699 280.633361 258.641594 267.283699 247.146861 252.922269 278.616897 247.265677 278.616897 240.81209 273.34988 234.85533 280.70235 217.968417"></polyline>
                    <polyline id="Path-5" points="278.598123 242.565219 287.28132 249.095142 285.681017 261.823768 294.65618 271.716336 314.678093 263.422933 307.197065 253.869347 302.142387 247.941052 308.054185 232.963762"></polyline>
                    <polyline id="Path-6" points="314.627598 263.579485 332.602523 259.994303 334.560175 248.80015 336.188962 230.461509"></polyline>
                    <polyline id="Path-7" points="332.620649 260.30482 349.659474 260.30482 353.326835 247.057371"></polyline>
                    <polyline id="Path-8" points="209.850479 325.114981 185.858882 336.865477 181.213342 353.020146 191.82247 375.009955 210.313997 371.539922 213.556035 380.402607 228.059752 394.867543 229.595318 427.373542 219.268443 443.388478"></polyline>
                    <polyline id="Path-9" points="218.587408 385.026729 251.893391 366.258539 256.787521 385.026729 294.793422 398.64033 299.293951 414.414615 315.620667 416.412277 319.321044 443.934471 289.899292 444.915188 285.207141 465.05483 273.261838 466.087301 270.796646 473.989969 266.503276 467.293144 255.655915 467.924529 248.234445 475.840135 225.708498 433.070243"></polyline>
                    <polyline id="Path-10" points="248.965976 475.33231 246.988902 485.95524 242.094772 493.925187 247.216777 511.389205 239.039177 535.46983 236.465227 552.920909 245.494768 565.054377 241.393021 592.749943 245.442978 607.670305 243.016629 627.99367 247.082124 649.126968 254.151423 659.769953 251.282272 688.764517 247.897812 707.687965"></polyline>
                    <polyline id="Path-11" points="284.026335 465.060653 323.72835 489.792718 318.427671 504.36116 338.384847 506.521844 347.347062 491.958577 348.584837 475.43905 341.292841 475.74698 334.342658 462.381793 320.271385 461.760758 318.427671 444.025038"></polyline>
                    <polyline id="Path-12" points="348.373793 488.498896 353.600673 491.83437 353.533346 502.153899 329.63497 524.832021 323.478465 547.863357 322.434902 563.422867 333.933519 571.025368"></polyline>
                    <polyline id="Path-13" points="329.589654 527.833689 355.018756 543.794589 361.991412 553.597324"></polyline>
                    <polyline id="Path-14" points="160.244971 299.000466 156.609331 317.005301 140.304626 328.738978 135.995719 343.918104 121.191622 339.132255"></polyline>
                    <polygon id="divider" points="303.907009 840.861396 678.811725 0.386863617 0.811724915 7.10477021 13.5985118 845.239902"></polygon>
                </g>
            </g>
        </g>
    </g>
</svg>