<?xml version="1.0" encoding="UTF-8"?>
<svg width="1200px" height="800px" viewBox="0 0 1200 800" version="1.1" xmlns="http://www.w3.org/2000/svg" xmlns:xlink="http://www.w3.org/1999/xlink">
    <title>Mapa de CONSUL</title>
    <desc>Lugares que utilizan este software libre para participación ciudadana.</desc>
    <defs></defs>
    <g id="Page-1" stroke="none" stroke-width="1" fill="none" fill-rule="evenodd">
        <g id="Mapa">
            <polygon id="france" stroke="#000000" stroke-width="3" fill="#FFFFFF" points="932.144531 201.152344 950.382812 187.667969 972.410156 30.1523438 947.859375 19.2265625 932.4375 -14.1914062 919.652344 -49.6835937 849.167969 -73.3710938 836 -119.945312 906.125 -128.050781 930.535156 -108.445313 973.726562 -107.78125 954.898438 -177.460938 989.511719 -170.394531 989.125 -153.570312 1042.0625 -151.679688 1030.00781 -165.273438 1071.85156 -181.933594 1092.21484 -197.074219 1093.98828 -246.25 1131.28906 -249 1234.94922 -156.566406 1266.23828 -163.566406 1287.98047 -144.53125 1346.91797 -131.261719 1322.76172 -38.9804688 1302.50781 -42.2265625 1281.13672 3.640625 1274.57031 22.6367188 1305.65234 20.8164062 1308.43359 49.8359375 1294.74609 58.40625 1316.46094 85.9296875 1294.05859 99.96875 1312.24609 119.636719 1305.93359 146.472656 1343.54297 152.433594 1337.11328 178.390625 1282.99219 223.871094 1223.96484 205.1875 1188.5 204.273437 1149.71094 219.503906 1165.28906 253.050781 976.816406 309.933594 933.824219 236.988281"></polygon>
            <g id="spain" transform="translate(286.000000, 161.000000)" stroke-width="3" stroke="#000000">
                <polygon id="galicia" fill="#FFFFFF" points="391.368075 15.06 363.861972 0.413 333.035681 10.0094 338.726667 20.1114 316.910704 30.7184 283.713521 30.7184 285.136244 60.5184 302.209484 63.5488 293.672958 75.1658 309.79784 82.2369 301.261315 90.3181 308.849296 95.3689 302.209765 109.0059 303.15831 124.1579 323.07662 113.0459 335.407136 120.117 328.293427 131.734 374.295305 140.8254 376.1923 129.2084 392.317183 130.2186 392.791437 108.5006 405.121953 104.46 390.894723 82.237 404.173596 61.024"></polygon>
                <polygon id="asturias" fill="#FFFFFF" points="391.584038 14.91 440.685446 14.04778 451.593427 5.46148 460.129953 17.07848 515.449202 27.35848 497.456714 46.22448 458.817277 50.23968 457.509577 55.55038 443.473897 59.86148 441.102629 51.00998 404.053803 60.66248"></polygon>
                <polygon id="cantabria" fill="#FFFFFF" points="497.123944 46.34 515.53615 27.418 560.676056 21.1199 574.680751 32.5839 569.884977 45.2209 563.911925 51.2768 540.592676 55.1362 546.94939 66.8422 546.784178 75.1046 529.511878 75.69634 518.886526 56.62334 500.275258 55.25604"></polygon>
                <polygon id="castilla_leon" fill="#FFFFFF" points="391.837559 108.5 391.837559 129.71293 407.488263 129.71293 426.932394 162.03793 390.889202 196.38293 388.517934 238.80893 425.035305 228.70693 434.046009 241.33393 465.346479 245.87963 465.346479 258.00163 505.657277 245.37463 543.597183 191.83663 588.650704 177.18963 613.311737 195.37263 631.333333 189.81683 625.642347 171.12883 634.178873 172.64403 637.972864 135.77303 612.837653 121.12603 603.352207 132.23803 597.661221 122.13603 586.753239 133.24803 578.216714 118.09603 582.484977 81.22503 571.576995 67.08303 585.330047 66.57795 582.010329 55.97095 570.153991 45.36395 563.988732 51.42485 540.276056 54.96035 546.915587 66.57735 546.915587 75.16365 529.368169 75.66873 518.934366 56.47573 500.438592 55.46553 497.118873 46.37413 459.178967 49.90963 457.281972 55.46543 443.52892 59.50603 441.157653 50.91973 405.588638 60.01113 389.463756 82.23413 404.639343 103.95213"></polygon>
                <polygon id="madrid" fill="#FFFFFF" points="506.607512 246.89 542.650704 193.352 559.723944 186.2809 567.311925 196.8879 561.620939 212.0399 580.590892 253.4559 579.642347 266.5879 561.146573 264.5676 549.764413 280.7296 538.382254 279.2144 549.290235 260.0214"></polygon>
                <polygon id="pais_vasco" fill="#FFFFFF" points="570.156808 44.36 574.899343 32.743 591.498404 25.6719 610.942535 40.8239 642.243005 34.2579 651.253709 45.8749 639.397371 52.4409 637.974648 61.5323 619.004695 77.6943 616.633427 94.3623 584.384601 83.7553 570.631549 66.5823 583.436244 66.07723 582.962 60.01633"></polygon>
                <polygon id="rioja" fill="#FFFFFF" points="581.537089 82.24 616.157746 94.362 648.406573 117.09 637.455078 135.753906 611.889202 123.151 603.826948 133.253 596.238967 121.131 586.753521 132.748 577.742817 118.101"></polygon>
                <polygon id="navarra" fill="#FFFFFF" points="650.682629 45.87 637.268545 53.37 635.927136 64.084 618.153427 78.37 616.141408 94.441 646.65784 115.512 640.286291 131.583 654.370798 138.3687 669.125728 129.7973 665.436901 113.3683 664.430892 103.7254 671.13784 85.8684 681.869296 85.15412 690.588263 75.51122 686.899437 66.58262 658.06 64.43972 657.724657 54.08272"></polygon>
                <polygon id="aragon" fill="#FFFFFF" points="654.37277 138.1 669.1277 130.1562 663.901033 106.0792 671.139718 86.2272 681.871174 85.51292 691.260845 75.51292 694.614272 83.72722 764.921315 88.26552 760.676901 133.37052 742.567981 143.72752 747.859155 155.42652 751.286948 163.72752 743.018404 215.55652 730.160188 220.87032 712.386479 221.22747 712.051127 248.37047 683.93939 278.20447 644.981643 245.87047 650.625023 202.40347 631.625023 188.72747 626.201925 171.58447 633.579484 173.72737 637.105587 147.44637 638.020385 135.59937 640.957099 131.50487"></polygon>
                <polygon id="cataluna" fill="#FFFFFF" points="764.814085 87.98 774.160188 84.7552 783.481221 85.51589 792.535587 89.44449 804.164695 91.50379 811.650423 97.65879 842.837277 101.23019 879.72554 92.65879 877.378122 124.80179 886.767793 143.37279 790.523662 188.37279 776.439155 192.30139 767.384883 206.23039 774.427136 215.51609 770.403005 227.30209 752.335399 227.98048 743.003286 216.31748 750.953333 162.30248 742.234366 144.44548 760.343286 133.73148 765.038122 88.01748"></polygon>
                <polygon id="valencia" fill="#FFFFFF" points="742.569953 215.87 751.959624 228.013 720.437559 288.013 718.425446 307.299 724.796995 334.799 746.594178 352.299 717.08338 371.942 698.304038 414.085 684.889953 404.085 683.883944 339.799 668.793803 326.942 674.830047 316.942 658.062911 310.1563 658.733606 288.3703 676.507315 271.2273 684.220272 277.6559 712.054075 248.7269 712.054075 220.5129 729.491634 221.5843"></polygon>
                <polygon id="murcia" fill="#FFFFFF" points="615.142723 402.66 643.98216 377.66 653.707042 384.0886 665.444131 355.8746 683.553052 355.8746 686.235775 403.7316 698.978498 414.8026 698.643155 434.4456 666.449728 435.8742 655.718272 450.8742 640.963343 434.0882 636.268507 414.4452 615.812169 414.4452"></polygon>
                <polygon id="extremadura" fill="#FFFFFF" points="376.37277 254.09 389.115493 239.09 423.991549 228.733 435.728638 241.233 465.239437 245.8758 466.245446 257.3048 484.689577 301.5908 501.791925 307.6622 481.335587 351.9482 449.813521 369.4482 449.813521 393.0192 440.088638 389.4478 426.674554 399.8048 376.036995 387.3048 360.610704 358.3758 377.37784 340.1618 354.238873 284.8048 380.395681 281.5905"></polygon>
                <polygon id="andalucia" fill="#FFFFFF" points="376.034742 388.02 347.530516 433.734 352.896056 456.591 377.040657 451.591 406.886667 476.948 405.545258 505.877 439.750892 538.02 453.835399 537.30571 474.96216 508.01971 493.406291 507.66257 507.490798 490.87657 594.345258 495.87657 603.399624 483.73357 619.831549 483.73357 627.209108 503.73357 654.372488 450.51957 642.97061 436.23357 635.928357 414.09057 617.484225 413.37628 614.466103 402.30528 601.052019 397.66248 607.423568 377.30548 601.052019 371.23408 521.575023 378.01978 480.663286 352.66278 449.476432 368.37678 450.81784 394.44778 439.415962 388.37638 425.666667 400.16238"></polygon>
                <polygon id="castilla_mancha" fill="#FFFFFF" points="466.307042 257.15 503.473239 246.584 549.300469 260.408 538.267606 279.484 549.970892 280.8259 561.29108 264.7549 580.20939 266.2268 580.283756 253.6838 561.72507 211.9598 567.564883 197.2378 560.0077 186.7328 588.078122 176.8374 613.50723 195.0954 632.564507 189.5903 650.355117 202.8043 645.186009 245.8273 676.020751 271.8373 658.640469 288.6843 658.067991 309.7993 674.77785 317.1947 668.978789 327.1947 683.669869 340.0517 683.808779 355.6177 665.543991 355.7044 653.569343 384.4234 644.457512 377.6123 615.536385 402.2553 601.05939 397.9696 606.875352 377.6556 600.54446 371.5662 519.905962 377.6556 481.005493 352.6556 501.976385 307.1936 484.514413 301.5839"></polygon>
                <path d="M794.109859,250.7 L795.776808,256.3357 L805.222817,256.96189 L808.278967,251.63929 L803.278028,245.69049 L794.109859,250.7 Z M801.889014,266.668 L798.555117,272.3037 L805.500845,275.7478 L810.501784,271.6776 L801.889014,266.668 Z M872.458028,196.222 L875.514085,207.493 L883.293333,204.6751 L889.961221,213.1287 L893.572958,206.8668 L888.572019,195.9088 L872.458028,196.222 Z" id="baleares"></path>
                <path d="M12.8685446,484.86 L22.258216,473.36 L34.4647887,478.86 L33.056338,490.36 L27.4225352,505.36 L12.8685446,484.86 Z M52.3051643,529.36 L59.8169014,518.86 L67.7981221,527.86 L65.4507042,538.36 L52.7746479,536.36 L52.3051643,529.36 Z M76.2488263,509.86 L89.3943662,536.86 L105.826291,528.36 L106.765258,519.86 L110.051643,509.86 L127.422535,502.36 L121.788732,493.36 L103.00939,500.36 L98.314554,508.86 L76.2488263,509.86 Z M134.934272,547.36 L135.873239,538.36 L146.201878,525.86 L156.061033,525.86 L165.920188,535.36 L164.981221,544.86 L155.591549,560.86 L134.934272,547.36 Z M209.58216,531.36 L229.769953,517.86 L242.446009,484.36 L250.42723,484.86 L255.591549,499.36 L251.835681,525.36 L236.342723,526.36 L226.483568,538.86 L212.868545,539.36 L209.58216,531.36 Z M257.469484,472.36 L266.389671,463.36 L283.760563,453.36 L284.230047,469.86 L265.450704,481.36 L257.469484,472.36 Z M15.685446,542.36 L23.1971831,552.36 L12.8685446,561.86 L1.1314554,555.86 L0.661971831,546.36 L9.58215962,548.36 L15.685446,542.36 Z" id="canarias" fill="#FFFFFF"></path>
                <polygon id="Path" fill="#D2EEF6" points="826.893096 222.699257 831.36492 234.09429 843.11595 223.593934 844.283871 234.77818 856.23476 243.418919 872.716805 217.143827 859.340367 214.155324 852.268826 201.623598"></polygon>
                <polygon id="Path" fill="#D2EEF6" points="135.521103 546.702418 136.055878 538.592001 146.638367 525.289224 157.47109 525.902701 165.738911 534.840505 165.817614 544.13348 155.75981 560.576294"></polygon>
                <polyline id="divider" points="2.31794914 438.830581 295.378221 438.830581 333.272911 486.230763 333.272911 554.780512 333.272911 683.274657"></polyline>
            </g>
            <g id="america" transform="translate(10.000000, -1.000000)">
                <path d="M63.1311037,167.812114 C53.4233118,167.812114 33.5261997,183.931838 33.5261997,183.931838 L17.8492741,210.070212 L22.6191298,234.202133 L11.1805617,264.053809 L0.986698741,278.516619 L0.986698741,313.531676 L26.0852249,354.879894 L52.2240338,393.719757 L97.0879331,413.080675 L109.707608,452.655936 L110.220936,527.126244 L106.482277,593.484486 L119.637994,661.467865 L143.81889,710.40809 L164.505971,712.715973 L178.296058,707.61803 L180.769372,701.479917 L161.502433,694.793744 L157.546989,671.191449 L171.16152,647.082226 L156.652073,633.005272 L169.417116,622.632541 L172.410768,604.547219 L182.831767,594.987057 L180.769372,575.989297 L211.941514,565.657422 L213.695004,539.214902 L235.295636,538.928914 L273.604391,479.924643 L272.96841,455.061865 L310.295938,435.042721 L324.005866,439.954447 L352.416034,353.572521 L382.870427,314.632789 L372.28589,290.777778 L274.908152,252.323771 L260.789379,264.893614 L239.325028,260.245178 L250.200299,240.784391 L216.397922,202.148805 L193.670696,210.397056 L134.683481,174.317201 L92.2317658,179.328797 C92.2317658,179.328797 85.0972923,175.091906 77.3168335,171.757818 C75.5890596,171.017431 70.1618341,174.912265 68.441403,174.317201 C65.1361461,173.173978 65.6431638,167.812114 63.1311037,167.812114 Z" id="sudamerica" stroke="#000000" stroke-width="3" fill="#FFFFFF"></path>
                <g id="lines" transform="translate(1.188275, 0.131192)" stroke-width="3" stroke="#000000">
                    <polyline id="Path-3" points="66.2960471 175.152671 48.9853262 192.69173 58.8797562 209.340639 75.3488937 208.978368 99.5605975 213.553325 102.807814 246.323263 84.792753 250.5463 87.9745852 296.275165 76.392457 286.341195 62.2201945 289.816403 38.6040727 271.335441 8.9078354 265.461487"></polyline>
                    <polyline id="Path-4" points="103.201416 246.092963 115.102699 253.633361 137.641594 240.283699 126.146861 225.922269 157.616897 220.265677 157.616897 213.81209 152.34988 207.85533 159.70235 190.968417"></polyline>
                    <polyline id="Path-5" points="157.598123 215.565219 166.28132 222.095142 164.681017 234.823768 173.65618 244.716336 193.678093 236.422933 186.197065 226.869347 181.142387 220.941052 187.054185 205.963762"></polyline>
                    <polyline id="Path-6" points="193.627598 236.579485 211.602523 232.994303 213.560175 221.80015 215.188962 203.461509"></polyline>
                    <polyline id="Path-7" points="211.620649 233.30482 228.659474 233.30482 232.326835 220.057371"></polyline>
                    <polyline id="Path-8" points="88.8504791 298.114981 64.8588818 309.865477 60.213342 326.020146 70.8224704 348.009955 89.3139973 344.539922 92.5560351 353.402607 107.059752 367.867543 108.595318 400.373542 98.2684435 416.388478"></polyline>
                    <polyline id="Path-9" points="97.5874084 358.026729 130.893391 339.258539 135.787521 358.026729 173.793422 371.64033 178.293951 387.414615 194.620667 389.412277 198.321044 416.934471 168.899292 417.915188 164.207141 438.05483 152.261838 439.087301 149.796646 446.989969 145.503276 440.293144 134.655915 440.924529 127.234445 448.840135 104.708498 406.070243"></polyline>
                    <polyline id="Path-10" points="127.965976 448.33231 125.988902 458.95524 121.094772 466.925187 126.216777 484.389205 118.039177 508.46983 115.465227 525.920909 124.494768 538.054377 120.393021 565.749943 124.442978 580.670305 122.016629 600.99367 126.082124 622.126968 133.151423 632.769953 130.282272 661.764517 126.897812 680.687965"></polyline>
                    <polyline id="Path-11" points="163.026335 438.060653 202.72835 462.792718 197.427671 477.36116 217.384847 479.521844 226.347062 464.958577 227.584837 448.43905 220.292841 448.74698 213.342658 435.381793 199.271385 434.760758 197.427671 417.025038"></polyline>
                    <polyline id="Path-12" points="227.373793 461.498896 232.600673 464.83437 232.533346 475.153899 208.63497 497.832021 202.478465 520.863357 201.434902 536.422867 212.933519 544.025368"></polyline>
                    <polyline id="Path-13" points="208.589654 500.833689 234.018756 516.794589 240.991412 526.597324"></polyline>
                    <polyline id="Path-14" points="39.2449708 272.000466 35.609331 290.005301 19.3046258 301.738978 14.9957194 316.918104 0.191622041 312.132255"></polyline>
                    <path d="M545.95235,0.868808115 L189.147662,799.376621" id="divider"></path>
                </g>
                <polygon id="Path-15" fill="#D2EEF6" points="24.1464844 234.489258 12.6137695 264.657227 40.7255859 270.159668 46.9726562 254.089844 37.4863281 248.746094"></polygon>
            </g>
            <polygon id="Path-2" fill="#D2EEF6" points="971.378156 508.123741 988.376953 509.103516 994.625 503.240234 1009.53171 496.66161 1002.99393 468.54223 1004.79574 448.792256 974.882003 435.907553 970.408522 440.670848 962.509029 434.375267 946.107644 450.151068 945.590948 470.027344 963.055121 477.135206 956.910656 487.885638 971.378156 500.323199"></polygon>
        </g>
    </g>
</svg>